<?xml version="1.0" encoding="utf-8"?>
<!-- Generator: Adobe Illustrator 22.1.0, SVG Export Plug-In . SVG Version: 6.00 Build 0)  -->
<svg version="1.1" id="Layer_1" xmlns="http://www.w3.org/2000/svg" xmlns:xlink="http://www.w3.org/1999/xlink" x="0px" y="0px"
	 width="698px" height="1045px" viewBox="0 0 698 1045" style="enable-background:new 0 0 698 1045;" xml:space="preserve">
<style type="text/css">
	.st0{fill:#FFFFFF;}
	.st1{fill:#404041;}
	.st2{fill:#231F20;}
	.st3{fill:#221F1F;}
	.st4{fill:none;stroke:#231F20;stroke-width:8.334;stroke-miterlimit:10;}
	.st5{fill:#898989;}
</style>
<g>
	<path class="st0" d="M45.7,520.3c-21.6,0-36.1,14.8-36.1,36.9v6.2c0,1.4,1.1,2.5,2.5,2.5h21.6c1.4,0,2.5-1.1,2.5-2.5v-9
		c0-4.2,1.1-11.2,8.5-11.2c5.1,0,7.7,4.2,7.7,12.5c0,18.8-16.2,42.5-43.1,81.8c-0.3,0.4-0.4,0.9-0.4,1.4v17.7c0,1.4,1.1,2.5,2.5,2.5
		h63.1c1.4,0,2.5-1.1,2.5-2.5V638c0-1.4-1.1-2.5-2.5-2.5H39.2c33.9-47.9,39.7-63.2,39.7-83.4C78.9,533.9,64.6,520.3,45.7,520.3z"/>
	<path class="st0" d="M125,520.3c-23.7,0-34.7,12.3-34.7,38.7v63.3c0,26.4,11,38.7,34.7,38.7s34.7-12.3,34.7-38.7V559
		C159.7,532.6,148.7,520.3,125,520.3z M116.9,553.3c0-6.9,2.6-10.1,8.1-10.1s8.1,3.2,8.1,10.1v74.6c0,9.1-4.6,10.1-8.1,10.1
		s-8.1-1-8.1-10.1C116.9,627.9,116.9,553.3,116.9,553.3z"/>
</g>
<g>
	<path class="st0" d="M601.5,520.3h-12.7c-0.6,0-1.1,0.2-1.5,0.5c-7.1,5.5-16.3,10.8-29.1,16.7c-0.9,0.4-1.5,1.3-1.5,2.3V552
		c0,1.4,1.1,2.5,2.5,2.5h17.2v102.1c0,1.4,1.1,2.5,2.5,2.5h22.5c1.4,0,2.5-1.1,2.5-2.5V522.8C604,521.4,602.8,520.3,601.5,520.3z"/>
	<path class="st0" d="M668.2,520.3h-12.7c-0.6,0-1.1,0.2-1.5,0.5c-7.1,5.5-16.3,10.8-29.1,16.7c-0.9,0.4-1.5,1.3-1.5,2.3V552
		c0,1.4,1.1,2.5,2.5,2.5h17.2v102.1c0,1.4,1.1,2.5,2.5,2.5h22.5c1.4,0,2.5-1.1,2.5-2.5V522.8C670.7,521.4,669.6,520.3,668.2,520.3z"
		/>
</g>
<g>
	<path class="st0" d="M317.7,1007.5h-14.1v-49.9c0-1.4-1.1-2.5-2.5-2.5h-10.6c-1.4,0-2.5,1.1-2.5,2.5v61.6c0,1.4,1.1,2.5,2.5,2.5
		h27.2c1.4,0,2.5-1.1,2.5-2.5v-9.2C320.2,1008.6,319.1,1007.5,317.7,1007.5z"/>
	<path class="st0" d="M368,1007.5h-14.1v-49.9c0-1.4-1.1-2.5-2.5-2.5h-10.6c-1.4,0-2.5,1.1-2.5,2.5v61.6c0,1.4,1.1,2.5,2.5,2.5H368
		c1.4,0,2.5-1.1,2.5-2.5v-9.2C370.5,1008.6,369.3,1007.5,368,1007.5z"/>
	<path class="st0" d="M412.9,980.7h10.6c1.4,0,2.5-1.1,2.5-2.5v-4.5c0-11.8-7.1-19.4-18.2-19.4c-11.4,0-18.7,7.2-18.7,18.3v31.7
		c0,11.1,7.3,18.3,18.7,18.3c11.1,0,18.2-7.2,18.2-18.3v-7.1c0-1.4-1.1-2.5-2.5-2.5h-10.6c-1.4,0-2.5,1.1-2.5,2.5v7.4
		c0,3.7-1.1,3.7-2.6,3.7c-2.1,0-3.1-0.2-3.1-4.3v-31.2c0-4.1,1-4.3,3.1-4.3c2.4,0,2.6,3.8,2.6,4.9v4.8
		C410.4,979.5,411.5,980.7,412.9,980.7z"/>
</g>
<g id="icon">
	<g>
		<path class="st1" d="M466.6,615.9c0-63.1-51.2-114.3-114.3-114.3S238,552.8,238,615.9s51.2,85.5,114.3,85.5S466.6,679,466.6,615.9
			z"/>
		<path class="st2" d="M352.3,504c15.1,0,29.8,3,43.6,8.8c13.3,5.6,25.3,13.7,35.6,24c10.3,10.3,18.3,22.2,24,35.6
			c5.8,13.8,8.8,28.5,8.8,43.6c0,28.7-10.9,50.4-32.4,64.4c-9.7,6.3-21.7,11.1-35.6,14.3c-13,2.9-27.8,4.4-44,4.4s-30.9-1.5-44-4.4
			c-13.9-3.1-25.8-7.9-35.6-14.3c-21.5-14-32.4-35.7-32.4-64.4c0-15.1,3-29.8,8.8-43.6c5.6-13.3,13.7-25.3,24-35.6
			s22.2-18.3,35.6-24C322.5,507,337.2,504,352.3,504 M352.3,501.7L352.3,501.7C289.2,501.7,238,552.9,238,616s51.2,85.5,114.3,85.5
			l0,0c63.1,0,114.3-22.4,114.3-85.5C466.6,552.8,415.4,501.7,352.3,501.7L352.3,501.7z"/>
	</g>
	<g>
		<path class="st1" d="M497.6,520.1c-15.8-29.3-48.2-42.4-72.4-29.4c-7.6,4.1-13.5,10.3-17.5,17.8c11.1,5.7,21.1,13.1,30,22
			c11.1,11.1,19.8,24,25.9,38.4c4.3,10.2,7.2,20.8,8.5,31.7c3.5-0.8,6.9-2.1,10.2-3.9C506.5,583.7,513.4,549.4,497.6,520.1z"/>
		<path class="st2" d="M445.5,488.1c19.5,0,39.2,13,50,33.2c15.1,28.1,8.7,61-14.3,73.4c-2.3,1.2-4.6,2.2-7.1,3
			c-1.5-10.2-4.3-20.1-8.3-29.7c-6.2-14.7-15.1-27.8-26.4-39.1c-8.5-8.5-18-15.6-28.4-21.2c3.8-6.3,9.1-11.4,15.4-14.7
			C432.2,489.7,438.6,488.1,445.5,488.1 M445.5,485.7c-7,0-14,1.6-20.3,5c-7.6,4.1-13.5,10.3-17.5,17.8c11.1,5.7,21.1,13.1,30,22
			c11.1,11.1,19.8,24,25.9,38.4c4.3,10.2,7.2,20.8,8.5,31.7c3.5-0.8,6.9-2.1,10.2-3.9c24.2-13.1,31.1-47.4,15.3-76.6
			C486,498.6,465.3,485.7,445.5,485.7L445.5,485.7z"/>
	</g>
	<g>
		<path class="st1" d="M241,568.9c6.1-14.4,14.8-27.3,25.9-38.4c8.9-8.9,19-16.3,30-22c-4-7.5-9.9-13.7-17.5-17.8
			c-24.2-13.1-56.6,0.1-72.4,29.4c-15.8,29.3-8.9,63.6,15.3,76.6c3.3,1.8,6.7,3,10.2,3.9C233.8,589.7,236.7,579.1,241,568.9z"/>
		<path class="st2" d="M259.1,488.1c6.9,0,13.3,1.6,19.2,4.8c6.3,3.4,11.5,8.4,15.4,14.7c-10.4,5.6-20,12.8-28.4,21.2
			c-11.3,11.3-20.2,24.5-26.4,39.1c-4,9.5-6.8,19.5-8.3,29.7c-2.5-0.8-4.8-1.8-7.1-3c-23-12.4-29.5-45.4-14.3-73.4
			C219.9,501.1,239.5,488.1,259.1,488.1 M259.1,485.7c-19.8,0-40.5,12.8-52.1,34.4c-15.8,29.3-8.9,63.6,15.3,76.6
			c3.3,1.8,6.7,3,10.2,3.9c1.4-10.9,4.2-21.5,8.5-31.7c6.1-14.4,14.8-27.3,25.9-38.4c8.9-8.9,19-16.3,30-22
			c-4-7.5-9.9-13.7-17.5-17.8C273,487.4,266.1,485.7,259.1,485.7L259.1,485.7z"/>
	</g>
	<g>
		<path class="st0" d="M298.5,610.9c0-9-7.3-16.4-16.4-16.4s-16.4,7.3-16.4,16.4s7.3,16.4,16.4,16.4
			C291.2,627.2,298.5,619.9,298.5,610.9z"/>
		<path class="st3" d="M282.1,594.5c9,0,16.4,7.3,16.4,16.4c0,9-7.3,16.4-16.4,16.4l0,0c-9,0-16.4-7.3-16.4-16.4
			C265.8,601.9,273.1,594.5,282.1,594.5L282.1,594.5 M282.1,592.2c-5,0-9.7,1.9-13.2,5.5c-3.5,3.5-5.5,8.2-5.5,13.2
			c0,10.3,8.4,18.7,18.7,18.7s18.7-8.4,18.7-18.7C300.8,600.6,292.5,592.2,282.1,592.2L282.1,592.2z"/>
	</g>
	<g>
		<path class="st0" d="M406.1,610.9c0-9,7.3-16.4,16.4-16.4s16.4,7.3,16.4,16.4s-7.3,16.4-16.4,16.4S406.1,619.9,406.1,610.9z"/>
		<path class="st3" d="M422.4,594.5c9,0,16.4,7.3,16.4,16.4s-7.3,16.4-16.4,16.4S406,620,406,610.9S413.4,594.5,422.4,594.5
			 M422.4,592.2c-5,0-9.7,1.9-13.2,5.5s-5.5,8.2-5.5,13.2c0,10.3,8.4,18.7,18.7,18.7c10.3,0,18.7-8.4,18.7-18.7
			C441.1,600.6,432.8,592.2,422.4,592.2L422.4,592.2z"/>
	</g>
	<g>
		<ellipse class="st0" cx="352.3" cy="657.8" rx="49.7" ry="35"/>
		<path class="st3" d="M352.3,694c-28.1,0-50.9-16.2-50.9-36.2c0-19.9,22.8-36.2,50.9-36.2s50.9,16.2,50.9,36.2
			C403.2,677.7,380.4,694,352.3,694z M352.3,624c-26.8,0-48.5,15.2-48.5,33.8s21.8,33.8,48.5,33.8c26.8,0,48.5-15.2,48.5-33.8
			S379.1,624,352.3,624z"/>
	</g>
	<path class="st2" d="M323.5,678.1v-3.9c26.8,0,26.8-9.6,26.8-28.7h3.9C354.2,664.4,354.2,678.1,323.5,678.1z"/>
	<path class="st2" d="M381.1,678.1c-30.7,0-30.7-13.7-30.7-32.6h3.9c0,19.1,0,28.7,26.8,28.7L381.1,678.1L381.1,678.1z"/>
	<path class="st2" d="M373.2,645.5c0-6.5-9.4-11.7-20.9-11.7s-20.9,5.2-20.9,11.7s20.9,11.7,20.9,11.7S373.2,651.9,373.2,645.5z"/>
	<path class="st4" d="M386.8,666.9"/>
</g>
<g id="hangul_-_outlined">
	<g>
		<path class="st0" d="M262.7,55.4l-0.2-0.1l-0.2-0.1c-0.7-0.2-1.5-0.4-2.3-0.6c-5-1.4-11.1-3.3-18.8-3.5h-0.4l-0.4,0.1
			c-2.4,0.3-4.1,0.6-5.3,1.1c-3.9,1.5-4.4,4.5-4.4,5.7c0,4.9,5.5,6.5,7.7,7.2c6.9,2.6,10.1,4.9,11.1,5.8v77.1
			c-12.1,3-28.7,5.7-38.9,7.2v-2.5c6.5-1.4,12-4.2,16.2-8.4c5-4.8,7.7-11,7.7-17.5c0-9.6-6.6-21.4-24.9-25.4c0-0.1,0-0.1,0-0.2v-0.8
			v-1c9.1-0.4,16-0.7,23.5-0.7c3,0,5.7,0,8.1-0.6c4.2-1,6.5-3.9,6.5-7.7c0-1.9-0.7-6.6-7.7-8.3c-2.7-0.6-5.4-0.6-6.6-0.6
			c-8.9,0-11.3,1.1-13.7,2.6c-0.6,0.4-0.8,0.5-1.8,0.6c-6.9,0.8-24.7,2.6-39.8,2.6c-5.9,0-10.2-0.2-13.8-0.6
			c-2.1-0.4-3.6-0.6-4.9-0.6c-6.9,0-7,5.2-7,5.7c0,3.3,2.6,5.6,9.3,8.6c1.7,0.8,7.5,3.3,10.6,3.3c2.1,0,3.6-0.6,4.8-1.2
			c0.8-0.3,1.5-0.6,2.6-1c2.8-0.2,5.2-0.3,7.3-0.5c1.7-0.2,3.2-0.2,4.6-0.3c0.1,0.1,0.2,0.2,0.2,0.2c-18.8,4.2-25.5,15.9-25.5,25.9
			c0,6.6,2.9,12.9,8.1,17.9c4.5,4.2,10.4,7.2,17.2,8.5v4.1c-9.3,1.2-18.8,2.2-26.9,2.2c-5.3,0-10-0.5-13.8-1.4l-0.2-0.1h-0.2
			l-0.6-0.1c-1-0.2-2-0.3-2.9-0.3c-5.4,0-6.9,3.6-6.9,5.7c0,3.2,2.2,6.1,13.3,11.2c1.8,0.9,11.3,5.1,15,5.1c2.6,0,4.3-1,5.5-1.8
			c0.6-0.3,1-0.6,1.5-0.8c21.2-3.4,50.4-8.9,74-16.5v40.2v0.1v0.1c0.1,3,0.5,5.1,1.1,6.8c1.1,2.8,3.4,4.5,6.1,4.5
			c3.7,0,6.7-2.9,9.1-8.6l0.2-0.3l0.1-0.3c2.7-10.3,2.9-20.4,2.9-34.5V68.1c0-0.9,0.2-1.6,0.3-2.4c0.2-0.8,0.3-1.7,0.3-2.6
			C269.6,57.8,264.9,56.2,262.7,55.4z M215.5,126.1c0,2.8-1.2,5.3-3.4,7.3c-2.7,2.5-6.9,3.8-11.9,3.8c-10.3,0-14.9-5.7-14.9-11
			c0-5.4,4.7-11.2,14.9-11.2C210.8,114.9,215.5,120.8,215.5,126.1z M186.9,96.3c0.1,0,0.2,0,0.2,0C187.1,96.3,187,96.3,186.9,96.3z"
			/>
		<path class="st0" d="M176.1,74.5c4.6,3,8.1,4.6,10.5,4.6l0,0l0,0l19.9-0.3h0.1h0.1c3.5-0.2,6.4-0.8,8.5-1.9
			c4.3-2.2,4.7-5.6,4.7-6.9c0-3.6-3-8.1-11.4-8.6h-0.2h-0.2c-20.4,0-22.6,0-29.1-0.9c-0.5-0.1-0.9-0.2-1.3-0.2
			c-1.3-0.2-2.3-0.5-3.4-0.5c-4,0-6.1,2.8-6.1,5.6C168.4,67.3,169.3,69.9,176.1,74.5z M212.9,67.2c0.3,0.2,0.6,0.3,0.9,0.6
			c0.4,0.3,0.7,0.6,0.9,0.9c0.2,0.2,0.2,0.4,0.3,0.6c-0.1-0.2-0.2-0.4-0.3-0.6c-0.2-0.3-0.6-0.6-0.9-0.9
			C213.6,67.5,213.3,67.3,212.9,67.2c-0.5-0.2-1-0.5-1.7-0.6C211.9,66.7,212.5,67,212.9,67.2z M209.8,66.2c-0.5-0.1-1-0.2-1.6-0.2
			C208.8,66.1,209.3,66.2,209.8,66.2z"/>
		<path class="st0" d="M335.1,99.2c3.8,4.6,7.7,9.3,10.9,13.1c3,3.7,5.6,6.8,7.4,9c3.2,4,6.3,4.9,8.4,4.9c4.3,0,7.7-3.8,7.7-8.7
			c0-1.2-0.2-2.3-0.5-3l-0.1-0.4l-0.2-0.4c-5.3-12.1-9.4-14.9-14.7-17.5c-1.1-0.6-2.2-1.1-3.4-1.9c-2.2-1.8-4.4-3.8-6.9-6.5
			c1.8-2.6,3.5-5.5,5-8.1c3.5-6.3,4-8.5,4-10.1c0-3-1.5-5.5-4.6-7.5l-0.1-0.1l-0.1-0.1c-7.7-4.6-13.6-7.8-20.2-7.8
			c-5.3,0-6.9,2.8-7.4,4.5c-0.8,2.8,0.6,5.7,3.8,7.7c2,1.4,5.1,3.7,6.9,5.1c-8.5,18.5-21,34.3-37,46.6c-3.4,2.2-5.1,4.6-5.1,6.9
			c0,3.1,2.4,5.4,5.6,5.4c4.2,0,14.4-7.3,17.4-9.5C317.9,116.4,326.4,109.2,335.1,99.2z M339.1,89.5c0.8,1,1.7,1.8,2.5,2.7
			C340.8,91.4,339.9,90.5,339.1,89.5z M363.8,120.3c0.2-0.2,0.2-0.4,0.4-0.6C364.1,119.9,363.9,120.1,363.8,120.3z M364.3,115.6
			c0.1,0.3,0.2,0.6,0.2,1C364.5,116.2,364.4,115.9,364.3,115.6c-1.4-3.3-2.8-5.7-4-7.7C361.6,109.7,362.9,112.2,364.3,115.6z
			 M355.9,102.7c0.5,0.4,1,0.8,1.4,1.3c0.6,0.6,1.3,1.4,2,2.3c-0.7-1-1.4-1.7-2-2.3C356.8,103.5,356.3,103.1,355.9,102.7
			c-0.3-0.2-0.6-0.5-1-0.6C355.2,102.2,355.5,102.5,355.9,102.7z M343.9,78.6c-1.6,2.7-3.4,5.7-5.2,8.2
			C340.5,84.3,342.3,81.3,343.9,78.6c0.4-0.7,0.9-1.4,1.2-2.2C344.7,77.1,344.3,77.8,343.9,78.6z M346,74.7c0.3-0.6,0.6-1.2,0.9-1.8
			C346.6,73.5,346.3,74.1,346,74.7z M344.4,65.2c0.4,0.2,0.8,0.5,1.3,0.7c0.2,0.2,0.5,0.3,0.6,0.5c0.6,0.5,1,1,1.3,1.4
			c0.4,0.6,0.5,1.1,0.5,1.8l0,0c0-0.6-0.2-1.1-0.5-1.8c-0.2-0.5-0.7-0.9-1.3-1.4c-0.2-0.2-0.4-0.3-0.6-0.5
			C345.2,65.7,344.8,65.4,344.4,65.2c-0.8-0.5-1.7-1-2.4-1.4c-0.6-0.3-1-0.6-1.6-0.9c0.6,0.3,1,0.6,1.6,0.9
			C342.7,64.2,343.5,64.6,344.4,65.2z M325,60c0,0.2,0.1,0.3,0.2,0.6C325,60.3,325,60.2,325,60z M294.4,123.7c0.2-0.2,0.6-0.6,1-0.9
			C294.9,123.2,294.6,123.5,294.4,123.7c-0.2,0.2-0.4,0.5-0.6,0.7C294,124.2,294.1,124,294.4,123.7z"/>
		<path class="st0" d="M413.8,38.4c-3.6-1.6-9.4-3.1-18.4-4.9l-0.6-0.1h-0.6c-8.5,0.4-9.7,4.2-9.7,6.5c0,1.8,0.8,4.9,6.1,6.5
			c7.5,3.8,9.4,5.7,10,6.4v34.5L390,87.8V55.7c0-0.3,0.1-0.7,0.2-1.1c0.2-0.6,0.3-1.4,0.3-2.4c0-5.2-4.8-6.9-6.4-7.5
			c-3-1.1-8-2.2-16.4-3.7l-0.6-0.1l-0.6,0.1c-2.4,0.2-4.2,0.5-5.5,0.9c-4.2,1.4-4.6,4.6-4.6,5.5c0,3.8,3.4,5.5,6.2,6.9h0.1h0.1
			c4.8,2.2,7.5,3.8,7.9,4.8v55.2c0,3.3,0.5,5.9,1.4,7.9c1.3,3,3.8,4.8,6.5,4.8c5.4,0,9.5-6.6,10.6-17.2v-0.1v-0.1l0.5-7.7l11-0.2
			l0.1,11v0.1v0.1c0.1,3.3,0.6,5.9,1.4,8c1.8,4.5,5.1,5,6.5,5c5.8,0,9.9-7.7,10.3-19.8l0,0l0,0l1-54.5v-0.1v-0.1
			c0-0.3,0.1-0.8,0.2-1.4c0.2-0.8,0.4-1.8,0.4-3C420.4,41.4,415.4,39.2,413.8,38.4z"/>
		<path class="st0" d="M414.3,128.9c-1.7-0.6-4-1-7.3-1.2c-1.2-0.2-2.2-0.2-3-0.2c-3.3,0-5,0.6-6.6,1.4c-0.8,0.3-1,0.4-1.9,0.4h-0.1
			h-0.1c-12.6,0.6-31.1,1.4-46.9,1.4c-11,0-18.8-0.4-24-1.2c-1.4-0.2-2.3-0.2-3-0.2c-5.4,0-6.9,3.5-6.9,5.6c0,2.7,1.5,5.1,9.3,8.9
			c2.9,1.4,8.2,3.8,12,3.8c2.6,0,4.3-0.8,5.7-1.4c1.4-0.6,2.5-1.1,5-1.3c17.8-0.6,39.2-1.4,50.9-1.8v40.4c0,2.7,0.4,4.9,1.2,6.5
			c1.3,2.6,3.5,4.1,6.1,4.1c4.3,0,8-4,10-10.8v-0.1v-0.1c2.6-10.5,2.6-20,2.6-43c0.1-0.2,0.3-0.8,0.5-1.2c0.5-1,1.1-2.4,1.1-4
			C418.9,133.6,418.5,130.5,414.3,128.9z"/>
		<path class="st0" d="M579.8,114.1c-4.2-0.8-8.4-0.8-9.6-0.8c-4.5,0-6.6,0.9-8.7,1.7c-1.8,0.7-3.8,1.5-8.9,2.1
			c-1.2,0.1-2.4,0.2-3.4,0.2c1.4-0.7,2.9-2,4.6-4.2l0.2-0.2l0.2-0.2c5.7-8.5,8.8-19.8,12-31.6c0.6-2.3,1.3-4.7,1.9-7.1
			c0.2-0.5,0.6-1.2,1.1-1.8c1-1.4,2.2-3,2.2-5.3c0-2.5-1.4-5.7-7.7-6.8c-2.8-0.5-5.9-0.6-7.5-0.6c-3.4,0-4.9,0.5-6.4,1
			c-0.7,0.2-1.1,0.4-2.4,0.5h-0.1h-0.1c-7.5,0.8-37.6,2.6-54.6,2.6c-8.7,0-15.8-0.4-21.1-1.1c-2.2-0.4-3.8-0.6-5.3-0.6
			c-6.4,0-6.5,4.9-6.5,5.4c0,2.2,0.7,4.5,9.3,9c3.7,1.9,8.8,4.2,12.5,4.2c2.2,0,3.9-0.6,5.4-1.1c1.2-0.4,2.3-0.8,3.9-1
			c14.9-1.5,41.1-2.9,56-3.3c-1,13.3-3.1,23-5.3,31.5v0.1v0.1c-0.4,1.8-0.6,3.3-0.6,4.5c0,3.5,1.8,5.5,3.8,6.2
			c-10,0.6-16.3,1-23.2,1l0.7-17.4v-0.1V101c0-0.6,0.1-1.2,0.2-1.8c0.2-0.7,0.2-1.6,0.2-2.5c0-3.8-2.2-6.3-6.7-7.6
			c-3-0.9-7.7-1.5-16.3-2.2h-0.4h-0.4c-2.2,0.2-3.9,0.6-5.3,1.1c-3.8,1.5-4.2,4.4-4.2,5.6c0,3,2.3,5.3,6.8,6.7l0.2,0.1h0.2
			c3.9,1,5.6,1.6,6.3,2l-0.2,16.8c-9.3,0.4-16.4,0.6-22.8,0.6c-12,0-21.3-0.6-30.4-1.8c-1.6-0.4-3-0.4-3.7-0.4
			c-1.4,0-2.6,0.2-3.6,0.7c-1.9,1-3.1,2.9-3.1,5c0,4.6,5.6,7.7,11.6,10.5c1.6,0.7,9.7,4.2,14.2,4.2c2.8,0,4.7-0.9,6.4-1.6
			c1.1-0.5,2.2-1,3.8-1.4c21.1-2.2,48.9-3.7,72.6-3.7c11.3,0,21.9,0.3,30.5,1h0.2h0.2h1.6c8.5,0,11.6-4.4,11.6-8.2
			C591.8,120.5,589.7,115.9,579.8,114.1z"/>
		<path class="st0" d="M560.6,157.8c0.2-0.3,0.5-0.8,0.7-1.2c0.8-1.3,1.8-2.8,1.8-4.8c0-2.1-1-5.7-7.8-6.9c-2.4-0.4-4.9-0.5-5.8-0.5
			c-3,0-4.5,0.6-5.9,1.1c-0.6,0.2-1,0.4-2.1,0.5l-43.8,0.8c-3.6-1-11.6-2.1-18.8-2.1c-2.9,0-5.2,0.3-6.9,0.9
			c-4.3,1.5-4.7,4.7-4.7,5.7c0,3.2,2.6,5.7,7.1,6.9c3.7,1.3,5.8,2.2,6.3,2.9l2.2,34.4v0.1v0.1c0.6,6,2.6,13.2,8.6,13.2
			c2,0,6.5-1,8.7-9.7l51.7-0.7c2.2,0,3.9-0.3,5.3-0.9c4.1-1.5,4.4-4.8,4.4-5.7c0-4.2-3.9-6.5-7.4-7.7c0.7-3,1.7-6.7,2.6-10.8
			C557.9,168.5,559.2,163.3,560.6,157.8z M500.4,160.4l39.8-0.8l-1.7,24.4c-1.7,0.5-2.5,0.6-6.1,0.9l-31.6,0.7L500.4,160.4z"/>
	</g>
</g>
<g>
	<path class="st0" d="M201.7,363.5c-0.1-0.7-0.5-1.2-1-1.6s-1.2-0.5-1.9-0.4l-48.7,8.6c-0.7,0.1-1.2,0.5-1.6,1
		c-0.4,0.5-0.5,1.2-0.4,1.9l4.1,23.5c0.1,0.7,0.5,1.2,1,1.6s1.2,0.5,1.9,0.4l16.5-2.9l2.5,14.3c1.5,8.4,1.4,14-0.2,17.7
		c-1.5,3.4-4.6,5.4-9.8,6.3c-5.3,0.9-11.8,0.2-14.2-13.8l-15.9-89c-1.1-6.2-0.8-10.9,1-14c1.4-2.4,3.6-3.8,6.9-4.4
		c9.7-1.7,15.4,2.1,19.9,27.6c0.2,1.4,1.5,2.3,2.9,2l28.3-5c0.7-0.1,1.2-0.5,1.6-1c0.4-0.5,0.5-1.2,0.4-1.9l-1.9-11
		c-2.4-13.8-8.8-25.6-18-33c-10.1-8.3-23.2-11.3-38-8.7c-28,4.9-42.9,26.5-37.9,55L115,426c2.5,14,8.6,25.1,17.8,32.2
		c6.9,5.3,15.2,8,24.3,8c2.8,0,5.6-0.3,8.5-0.8c13.8-2.4,20.6-8.4,27-18.4l5.6,8.7c0.5,0.8,1.5,1.3,2.5,1.1l14.4-2.5
		c1.4-0.2,2.3-1.5,2-2.9L201.7,363.5z"/>
	<path class="st0" d="M327.8,361.6c16.3-10.2,18.6-31,17.4-47c-1.3-19.2-6.8-32.6-16.5-40.8c-9.3-7.8-22.7-11-40.8-9.8l-42.3,3
		c-0.7,0-1.3,0.4-1.7,0.9s-0.7,1.2-0.6,1.8l12.3,175.6c0.1,1.3,1.2,2.3,2.5,2.3c0.1,0,0.1,0,0.2,0l30.2-2.1c1.4-0.1,2.4-1.3,2.3-2.7
		l-4.9-69.5c4.1-0.3,8.2-0.8,11.2-1.3l25.8,69.3c0.4,1,1.4,1.7,2.5,1.6l30.6-2.1c0.8-0.1,1.5-0.5,1.9-1.2s0.5-1.5,0.2-2.3
		L327.8,361.6z M283.7,343.6l-3.4-49l8.2-0.6c7.8-0.5,12.7,0.6,15.7,3.7c3.3,3.3,5.2,9.5,5.9,19.4c1.2,16.9-1.2,24.7-18.2,25.9
		L283.7,343.6z"/>
	<path class="st0" d="M645.2,315.1c-0.2-0.8-0.8-1.4-1.6-1.7L614.7,303c-1-0.4-2.2,0-2.9,0.9l-37.4,50.4l2.5-63
		c0-1.1-0.6-2.1-1.7-2.5l-28.9-10.4c-0.8-0.3-1.6-0.2-2.3,0.3s-1.1,1.2-1.1,2l-0.4,108.8L517.9,458c-0.5,1.3,0.2,2.7,1.5,3.2
		l28.4,10.2c0.3,0.1,0.6,0.1,0.8,0.1c0.4,0,0.7-0.1,1.1-0.2c0.6-0.3,1.1-0.8,1.3-1.4l24.6-68.4l69-84.1
		C645.2,316.8,645.4,315.9,645.2,315.1z"/>
	<path class="st0" d="M497.3,375.7l-11.5-0.6l-10-105.2c-0.1-1.2-1.1-2.1-2.3-2.3l-37.4-3.3c-1.2-0.1-2.3,0.7-2.6,1.8L404.6,371
		l-22.5-1.1c-0.1,0-0.2,0-0.3,0c-2.6,0-4.9,2.1-5,4.7l-1.3,25.4c-0.1,1.3,0.4,2.6,1.3,3.6s2.1,1.6,3.5,1.6l14.7,0.7l-9.1,32.8
		c-0.2,0.7-0.1,1.5,0.4,2.1c0.4,0.6,1.1,1,1.8,1.1l29.1,2.5c1.2,0.1,2.4-0.7,2.7-1.9l8-34.9l29,1.5l1.8,36.8c0.1,1.2,1,2.3,2.3,2.4
		l29.1,2.5c0.1,0,0.1,0,0.2,0c0.7,0,1.3-0.3,1.8-0.7c0.5-0.5,0.8-1.3,0.7-2l-3.6-37.4l6.3,0.3c0.1,0,0.2,0,0.3,0
		c2.6,0,4.9-2.1,5-4.7L502,381c0.1-1.3-0.4-2.6-1.3-3.6C499.9,376.4,498.6,375.8,497.3,375.7z M436.7,372.6l13.6-54.7l3.9,55.6
		L436.7,372.6z"/>
</g>
<g>
	<path class="st5" d="M173.6,720.9l-44.2-7.8c-1.4-0.2-2.7,0.7-2.9,2L96,888.5c-0.1,0.7,0,1.3,0.4,1.9c0.4,0.5,1,0.9,1.6,1l47.1,8.3
		c4.2,0.7,8.2,1.1,12,1.1c24.9,0,41.1-15.7,46.3-45.1c3.5-19.8-0.9-34.2-13.7-44.8c14.2-5.5,21.7-20.2,24-33.2
		C219.3,745.7,205.8,726.5,173.6,720.9z M168.9,848.6c-3,17.2-9.8,23.2-23.4,20.8l-10-1.8l8.5-48.4l7.1,1.3
		C166.7,823.3,171.9,831.4,168.9,848.6z M178.4,774.7c-1.1,6.2-3.7,11-7.6,13.9c-3.6,2.7-8.2,3.6-13.3,2.7l-8.3-1.5l7.3-41.7
		l8.8,1.6c5.8,1,9.7,3.5,11.8,7.5C179.3,761.3,179.7,767.2,178.4,774.7z"/>
	<path class="st5" d="M333.4,745.3l-80.6-7.1c-1.4-0.1-2.6,0.9-2.7,2.3l-15.3,175.4c-0.1,0.7,0.1,1.3,0.6,1.8c0.4,0.5,1,0.8,1.7,0.9
		l84,7.4c0.1,0,0.1,0,0.2,0c0.6,0,1.2-0.2,1.6-0.6c0.5-0.4,0.8-1,0.9-1.7l2.3-26.2c0.1-1.4-0.9-2.6-2.3-2.7l-51.4-4.5l4.1-46.5
		l36.4,3.2c0.7,0.1,1.3-0.1,1.8-0.6s0.8-1,0.9-1.7l2.3-26.2c0.1-1.4-0.9-2.6-2.3-2.7l-36.4-3.2l3.5-40.2l48,4.2
		c0.7,0.1,1.3-0.1,1.8-0.6c0.5-0.4,0.8-1,0.9-1.7l2.3-26.2c0.1-0.7-0.1-1.3-0.6-1.8C334.6,745.6,334,745.3,333.4,745.3z"/>
	<path class="st5" d="M472.9,876.7l5.2-0.7c2.7-0.4,4.6-2.9,4.3-5.6l-3.5-25.1c-0.2-1.3-0.9-2.5-1.9-3.3c-0.9-0.7-1.9-1-3-1
		c-0.2,0-0.5,0-0.7,0l-9.7,1.4L435.9,742c-0.3-1.2-1.4-1.9-2.6-1.8l-37.4,3.3c-1.2,0.1-2.2,1.1-2.3,2.3l-10.3,108.1l-24.3,3.4
		c-2.7,0.4-4.6,2.9-4.3,5.6l3.5,25.1c0.2,1.3,0.9,2.5,1.9,3.3c0.9,0.7,1.9,1,3,1c0.2,0,0.5,0,0.7,0l15.9-2.2l-3.2,33.9
		c-0.1,0.7,0.2,1.5,0.7,2s1.1,0.7,1.8,0.7c0.1,0,0.1,0,0.2,0l29.1-2.6c1.2-0.1,2.2-1.1,2.3-2.4l1.8-36.3l15.4-2.2l13.3-1.2l8.3,36.3
		c0.3,1.2,1.4,2.1,2.7,1.9l29.1-2.6c0.7-0.1,1.4-0.5,1.8-1.1s0.6-1.4,0.4-2.1L472.9,876.7z M418.9,793.5l13.2,53.2l-17.1,2.4
		L418.9,793.5z"/>
	<path class="st5" d="M620.2,888l-38-72.2c15.2-11.9,15.2-32.8,12.4-48.6c-3.3-19-10.1-31.7-20.7-38.8c-10.1-6.8-23.7-8.6-41.6-5.4
		l-41.8,7.4c-1.4,0.2-2.3,1.5-2,2.9L519,906.6c0.1,0.7,0.5,1.2,1,1.6c0.4,0.3,0.9,0.5,1.4,0.5c0.1,0,0.3,0,0.4,0l29.8-5.2
		c1.4-0.2,2.3-1.5,2-2.9L541.5,832c4.1-0.8,8.1-1.7,11-2.5l32.9,66.2c0.5,1,1.6,1.5,2.7,1.4l30.3-5.3c0.8-0.1,1.5-0.6,1.8-1.4
		C620.6,889.6,620.6,888.7,620.2,888z M544.5,801.1l-8.1,1.4l-8.5-48.4l8.1-1.4c13.6-2.4,20.2,0,23.9,20.7
		C562.8,790.1,561.3,798.1,544.5,801.1z"/>
</g>
</svg>
