<?xml version="1.0" encoding="utf-8"?>
<!-- Generator: Adobe Illustrator 27.6.1, SVG Export Plug-In . SVG Version: 6.00 Build 0)  -->
<svg version="1.1" id="Layer_1" xmlns="http://www.w3.org/2000/svg" xmlns:xlink="http://www.w3.org/1999/xlink" x="0px" y="0px"
	 viewBox="0 0 2355.4 270.9" style="enable-background:new 0 0 2355.4 270.9;" xml:space="preserve">
<style type="text/css">
	.st0{fill:#404041;}
	.st1{fill:#231F20;}
	.st2{fill:#FFFFFF;}
	.st3{fill:#221F1F;}
	.st4{fill:none;stroke:#231F20;stroke-width:8.334;stroke-miterlimit:10;}
	.st5{fill:#898989;}
</style>
<g id="icon">
	<g>
		<path class="st0" d="M320.4,171.1C320.4,98,261.1,38.7,188,38.7S55.6,98,55.6,171.1s59.3,99,132.4,99S320.4,244.2,320.4,171.1z"/>
		<path class="st1" d="M188,41.4c17.5,0,34.5,3.4,50.5,10.2c15.4,6.5,29.3,15.9,41.2,27.8s21.3,25.8,27.8,41.2
			c6.8,16,10.2,33,10.2,50.5c0,33.3-12.6,58.4-37.5,74.6c-11.3,7.4-25.1,12.9-41.2,16.5c-15.1,3.4-32.2,5.1-50.9,5.1
			s-35.9-1.7-50.9-5.1c-16.1-3.6-29.9-9.2-41.2-16.5c-24.9-16.2-37.5-41.4-37.5-74.6c0-17.5,3.4-34.5,10.2-50.5
			c6.5-15.4,15.9-29.3,27.8-41.2s25.8-21.3,41.2-27.8C153.5,44.9,170.5,41.4,188,41.4 M188,38.7C188,38.7,188,38.7,188,38.7
			C114.9,38.7,55.6,98,55.6,171.1c0,73.1,59.3,99,132.4,99l0,0c73.1,0,132.4-25.9,132.4-99S261.1,38.7,188,38.7L188,38.7z"/>
	</g>
	<g>
		<path class="st0" d="M356.4,60.1c-18.3-33.9-55.8-49.1-83.9-34c-8.8,4.8-15.6,11.9-20.3,20.6c12.8,6.6,24.5,15.1,34.8,25.4
			c12.9,12.8,22.9,27.8,30,44.5c5,11.8,8.3,24.1,9.9,36.8c4-1,8-2.4,11.8-4.5C366.7,133.8,374.7,94,356.4,60.1z"/>
		<path class="st1" d="M296,23c22.6,0,45.4,15.1,58,38.4c17.5,32.5,10.1,70.7-16.6,85.1c-2.6,1.4-5.4,2.6-8.2,3.4
			c-1.8-11.8-5-23.3-9.7-34.4c-7.2-17-17.5-32.2-30.6-45.4c-9.8-9.8-20.9-18.1-32.9-24.6c4.4-7.3,10.6-13.2,17.8-17.1
			C280.6,24.8,288.1,23,296,23 M296,20.3c-8.1,0-16.2,1.9-23.5,5.9c-8.8,4.8-15.6,11.9-20.3,20.6c12.8,6.6,24.5,15.1,34.8,25.4
			c12.9,12.8,22.9,27.8,30,44.5c5,11.8,8.3,24.1,9.9,36.8c4-1,8-2.4,11.8-4.5c28.1-15.1,36-54.9,17.7-88.8
			C342.9,35.1,318.9,20.3,296,20.3L296,20.3z"/>
	</g>
	<g>
		<path class="st0" d="M59,116.6c7-16.7,17.1-31.6,30-44.5c10.3-10.3,22-18.8,34.8-25.4c-4.7-8.7-11.5-15.8-20.3-20.6
			c-28.1-15.1-65.6,0.1-83.9,34s-10.3,73.7,17.7,88.8c3.8,2,7.7,3.5,11.8,4.5C50.8,140.7,54.1,128.4,59,116.6z"/>
		<path class="st1" d="M80,23c8,0,15.4,1.9,22.2,5.5c7.2,3.9,13.4,9.8,17.8,17.1C108,52.1,96.9,60.4,87.1,70.2
			C74,83.3,63.7,98.6,56.5,115.6c-4.7,11-7.9,22.6-9.7,34.4c-2.8-0.9-5.6-2-8.2-3.4C12,132.1,4.5,93.9,22.1,61.4
			C34.6,38.1,57.4,23,80,23 M80,20.3c-22.9,0-46.9,14.8-60.4,39.9C1.4,94,9.3,133.8,37.4,148.9c3.8,2,7.7,3.5,11.8,4.5
			c1.6-12.6,4.9-24.9,9.9-36.8c7.1-16.7,17.2-31.6,30-44.5c10.3-10.3,22-18.8,34.8-25.4c-4.7-8.7-11.5-15.8-20.3-20.6
			C96.2,22.1,88.2,20.3,80,20.3L80,20.3z"/>
	</g>
	<g>
		<path class="st2" d="M125.7,165.3c0-10.5-8.5-18.9-18.9-18.9s-18.9,8.5-18.9,18.9c0,10.5,8.5,18.9,18.9,18.9
			C117.2,184.2,125.7,175.7,125.7,165.3z"/>
		<path class="st3" d="M106.7,146.3c10.5,0,19,8.5,19,18.9c0,10.5-8.5,18.9-18.9,18.9l0,0c-10.5,0-18.9-8.5-18.9-18.9
			C87.8,154.8,96.3,146.3,106.7,146.3L106.7,146.3 M106.7,143.6c-5.8,0-11.2,2.2-15.3,6.4c-4.1,4.1-6.3,9.5-6.3,15.3
			c0,11.9,9.7,21.7,21.7,21.7c11.9,0,21.7-9.7,21.7-21.7C128.4,153.3,118.7,143.6,106.7,143.6L106.7,143.6z"/>
	</g>
	<g>
		<path class="st2" d="M250.4,165.3c0-10.5,8.5-18.9,18.9-18.9s19,8.5,19,18.9c0,10.5-8.5,18.9-19,18.9
			C258.8,184.2,250.4,175.7,250.4,165.3z"/>
		<path class="st3" d="M269.3,146.3c10.5,0,19,8.5,19,18.9c0,10.5-8.5,18.9-19,18.9c-10.5,0-18.9-8.5-18.9-18.9
			C250.4,154.8,258.8,146.3,269.3,146.3 M269.3,143.6c-5.8,0-11.2,2.2-15.3,6.4c-4.1,4.1-6.4,9.5-6.4,15.3
			c0,11.9,9.7,21.7,21.7,21.7c12,0,21.7-9.7,21.7-21.7C291,153.3,281.3,143.6,269.3,143.6L269.3,143.6z"/>
	</g>
	<g>
		<ellipse class="st2" cx="188" cy="219.6" rx="57.6" ry="40.5"/>
		<path class="st3" d="M188,261.5c-32.5,0-59-18.8-59-41.9c0-23.1,26.4-41.9,59-41.9s59,18.8,59,41.9
			C247,242.7,220.5,261.5,188,261.5z M188,180.4c-31,0-56.2,17.6-56.2,39.2c0,21.6,25.2,39.2,56.2,39.2s56.2-17.6,56.2-39.2
			C244.3,198,219,180.4,188,180.4z"/>
	</g>
	<path class="st1" d="M154.7,243.1v-4.6c31.1,0,31.1-11.1,31.1-33.2h4.6C190.3,227.3,190.3,243.1,154.7,243.1z"/>
	<path class="st1" d="M221.4,243.1c-35.6,0-35.6-15.8-35.6-37.8h4.6c0,22.1,0,33.2,31.1,33.2L221.4,243.1L221.4,243.1z"/>
	<path class="st1" d="M212.3,205.4c0-7.5-10.9-13.5-24.2-13.5s-24.2,6.1-24.2,13.5s24.2,13.5,24.2,13.5S212.3,212.8,212.3,205.4z"/>
	<path class="st4" d="M228,230.2"/>
</g>
<g>
	<g>
		<g>
			<path class="st2" d="M1841.6,255.2c-6.3,0-6.6-9.5-6.7-13v-67.5c-37,12.7-84.5,21.7-118.5,27.1c-1.5,0.5-2.5,1.1-3.5,1.7
				c-1.6,1-3.3,2-6.1,2c-4,0-15.6-4.8-21.1-7.4c-17.7-8.2-17.7-11.4-17.7-13.2c0-1.4,0.6-4.5,6.2-4.5c1,0,2.3,0.2,3.8,0.4l0.9,0.1
				l0.1,0c6.2,1.4,13.6,2.1,22.1,2.1c13.6,0,29.8-1.9,45.4-3.8v-13.7c-11.1-1.6-20.6-5.9-27.6-12.5c-7.1-6.7-10.9-15.3-10.9-24.2
				c0-14.2,10.4-31.1,39.7-36.1c0.2-0.4,0.4-0.9,0.4-1.7c0-1.9-1.4-4.3-3.8-6.6c-2.9,0.1-5.8,0.4-9.2,0.6c-3.4,0.3-7.2,0.6-11.5,0.8
				c-2.3,0.5-3.8,1.2-5.2,1.8c-1.7,0.8-3.3,1.4-5.6,1.4c-3.1,0-9.8-2.5-14.5-4.6c-11.7-5.2-11.7-7.9-11.7-9.3c0-1.7,0.8-4.5,6.5-4.5
				c1.8,0,3.9,0.2,6.9,0.8c5.8,0.7,12.5,1,21.8,1c23.5,0,50.8-2.8,61.4-3.9c2.4-0.3,3.3-0.9,4.4-1.6c3.1-2,6.2-3.3,18.6-3.3
				c8,0,17.6,1.6,17.6,9.4c0,8.4-9.6,8.4-18.1,8.4c-12.8,0-24.8,0.6-41.3,1.4l-1.9,0.1c0.9,1,1.8,2.2,2.7,4.2l0.3,0.6v1.9
				c0,1.6-0.5,2.8-0.9,3.7c11.8,1.9,21.6,6.1,28.4,12.4c6.8,6.2,10.6,14.4,10.6,23c0,18-14.9,32.5-36.6,36v12.3
				c15.8-2,47.3-7,68.1-12.5V41.9c-0.3-1.4-5.7-6.3-19.9-11.6c-5.9-1.6-8.7-3.9-8.7-6.8c0-4.8,6.6-5.6,11-6.2l0.2,0l0.2,0
				c11.3,0.4,20.4,3.1,27.8,5.2c1.2,0.4,2.4,0.7,3.6,1l0.1,0l0.1,0c3.9,1.4,7.6,3.2,7.6,7.8c0,1-0.2,2.1-0.4,3.1
				c-0.3,1.3-0.6,2.8-0.6,4.5v153.6c0,21.3-0.3,36.4-4.3,51.6l-0.1,0.2l-0.1,0.2C1849.5,249.5,1846.1,255.2,1841.6,255.2z
				 M1755.4,106.2c-18.6,0-27.1,11.1-27.1,21.5c0,10.2,8.5,21.2,27.1,21.2c13.3,0,27.6-6.6,27.6-21.2
				C1783,117.4,1774.4,106.2,1755.4,106.2z M1734.5,51.5c-4,0-10.9-4.4-13.7-6.3c-9.8-6.7-9.8-9.5-9.8-10.5c0-1.9,1.3-4.2,5-4.2
				c1.2,0,2.5,0.3,4.3,0.6c0.6,0.1,1.3,0.3,2.1,0.4c10.4,1.4,13.7,1.4,45.2,1.4h0.1l0.1,0c9.9,0.7,13.4,5.2,13.4,8.9
				c0,2.5-1.6,8.4-16.2,9.2L1734.5,51.5L1734.5,51.5L1734.5,51.5z"/>
			<path class="st2" d="M1817.6,20.3c12.8,0.5,22.7,3.9,30.6,6.2c4.7,1.7,5.7,3,5.7,4.9c0,1.7-1,4.2-1,7.7v153.6
				c0,21-0.2,35.8-4.2,50.9c-2,4.7-4.7,8.6-7.2,8.6c-2,0-3.5-2.7-3.7-10.1v-71.6c-33.8,12.1-80.3,21.7-122.3,28.4
				c-4.4,1.5-5.4,3.7-8.9,3.7c-5.2,0-35.8-13.1-35.8-17.5c0-1,1-1.5,3.2-1.5c1,0,2.5,0.2,4.2,0.5c6.4,1.5,14.1,2.2,22.7,2.2
				c14.3,0,31.1-2,48.4-4.2v-19c-24.7-2.5-38.5-18.3-38.5-34.1c0-14.8,11.9-29.1,38.3-33.3c1.2-1.2,1.7-2.7,1.7-4.4
				c0-3.2-2.2-6.7-5.7-9.6c-6.4,0.2-13.1,1-22.2,1.5c-5.7,1.2-7.2,3.2-10.4,3.2c-4.4,0-23.2-7.9-23.2-10.9c0-1,1-1.5,3.5-1.5
				c1.7,0,3.7,0.2,6.4,0.7c6.4,0.7,13.6,1,22.2,1c22.2,0,48.4-2.5,61.7-3.9c8.7-1.2,3-4.9,22.7-4.9c3,0,14.6,0,14.6,6.4
				c0,5.4-6.9,5.4-15.1,5.4c-14.8,0-28.2,0.7-49.2,1.7c2,3.9,3.9,3.9,5.9,8.1v1.2c0,2.5-1.7,3.2-1.7,5.4v0.7
				c27.4,3.2,39.8,18,39.8,32.9c0,15.6-13.3,30.6-36.6,33.3v18.3c15.1-1.7,51.6-7.4,74.1-13.6v-125c-0.2-4-9.4-9.6-22-14.3
				c-4.4-1.2-6.7-2.7-6.7-4C1809.2,22,1811.7,21,1817.6,20.3 M1755.4,151.9c20.5,0,30.6-12.1,30.6-24.2s-10.1-24.4-30.6-24.4
				c-20,0-30.1,12.3-30.1,24.4S1735.4,151.9,1755.4,151.9 M1716,33.4c1.2,0,3.2,0.5,5.9,1c10.6,1.5,14.1,1.5,45.7,1.5
				c6.9,0.5,10.6,3.2,10.6,5.9c0,3-4.2,5.7-13.3,6.2l-30.4,0.5c-4.7,0-20.5-10.9-20.5-13.8C1714,33.9,1714.5,33.4,1716,33.4
				 M1817.4,14.2l-0.5,0.1c-3.5,0.4-6,1-7.8,1.7c-5.2,2-5.8,5.9-5.8,7.5c0,6.5,7.8,8.8,10.8,9.7c11,4.1,16.5,8,17.8,9.6v119.3
				c-19.2,4.9-46.2,9.3-62.1,11.4v-6.4c10-2,18.7-6.4,25.2-12.7c7.3-7.1,11.4-16.3,11.4-25.8c0-14.3-10.1-32.1-38.1-37.7
				c0.1-0.4,0.1-0.8,0.1-1.3v-1.2v-1.3l-0.6-1.2c0,0,0-0.1-0.1-0.1c14.8-0.7,25.9-1.2,37.8-1.2c4.4,0,8.6,0,12-0.8
				c8.2-2,9-8.1,9-10.6c0-2.7-1.1-9.1-10.8-11.4c-4-1-8.1-1-9.8-1c-13.2,0-16.7,1.6-20.2,3.8c-1,0.6-1.4,0.9-3.2,1.2
				c-10.7,1.2-37.7,3.9-61,3.9c-9.1,0-15.7-0.3-21.3-0.9c-3.1-0.6-5.3-0.8-7.3-0.8c-9,0-9.5,6.2-9.5,7.5c0,4.4,3.7,7.6,13.5,12
				c2.5,1.1,11.2,4.8,15.7,4.8c2.9,0,5-0.9,6.8-1.7c1.2-0.5,2.5-1.1,4.4-1.5c4.2-0.2,8-0.5,11.3-0.8c2.8-0.2,5.3-0.4,7.8-0.6
				c1,1.1,1.5,2,1.8,2.7c-29.3,5.8-39.8,23.6-39.8,38.6c0,9.7,4.2,19.1,11.9,26.4c6.9,6.6,16,11,26.7,12.9v8.5
				c-14.7,1.9-29.7,3.5-42.4,3.5c-8.2,0-15.4-0.7-21.4-2.1l-0.2-0.1l-0.2,0l-0.8-0.1c-1.6-0.2-3-0.4-4.2-0.4c-8.9,0-9.2,6.7-9.2,7.5
				c0,4.3,3.7,7.2,7.7,9.7c3.8,2.4,8.5,4.7,11.8,6.2c1.7,0.8,16.8,7.6,22.4,7.6c3.7,0,6-1.4,7.7-2.5c0.9-0.5,1.6-1,2.7-1.4
				c32.9-5.2,78.3-13.8,114.8-25.8V242v0.1v0.1c0.1,4.3,0.7,7.5,1.6,9.9c2.2,5.4,6.4,6,8.1,6c5,0,9.2-4.1,12.7-12.3l0.2-0.4l0.1-0.4
				c4.1-15.6,4.4-30.9,4.4-52.4V39c0-1.4,0.3-2.7,0.5-3.9c0.2-1.2,0.5-2.4,0.5-3.7c0-7-6.5-9.4-9.6-10.6l-0.2-0.1l-0.2-0.1
				c-1.1-0.3-2.3-0.7-3.5-1c-7.5-2.2-16.8-4.9-28.5-5.4L1817.4,14.2L1817.4,14.2z M1755.4,145.9c-11.6,0-24.1-5.7-24.1-18.2
				c0-8.9,7.6-18.4,24.1-18.4c11.9,0,24.6,5.8,24.6,18.4C1780,136.8,1772.4,145.9,1755.4,145.9L1755.4,145.9z M1716,27.4
				c-5.5,0-8,3.8-8,7.2c0,1.8,0,5.4,11.1,13c4.6,3.1,11,6.8,15.4,6.8h0.1h0.1L1765,54h0.1l0.1,0c17.2-0.9,19-8.8,19-12.2
				c0-5-4.2-11.1-16.2-11.9l-0.2,0h-0.2c-31.2,0-34.6,0-44.7-1.4c-0.7-0.1-1.4-0.3-2-0.4C1718.9,27.7,1717.4,27.4,1716,27.4
				L1716,27.4z"/>
		</g>
		<g>
			<path class="st2" d="M2067.8,253.9c-2.1,0-6.9-1.2-6.9-11.9v-66.3c-16.5,0.8-52.7,2.1-82.4,3.1c-4.6,0.2-6.9,1.3-9.2,2.4
				c-2,0.9-4,1.9-6.9,1.9c-5.2,0-13.9-4.1-16.4-5.3c-11.8-5.8-11.8-8.5-11.8-9.8c0-1.3,0.6-4.2,6.2-4.2c1,0,2.2,0,3.9,0.3
				c8,1.3,20.2,1.9,37.3,1.9c24.3,0,52.7-1.3,72-2.2h0.1c2.3,0,3.3-0.4,4.7-1c1.8-0.8,3.9-1.7,8.4-1.7c1,0,2.4,0,4,0.3
				c6.9,0.4,14.3,1.2,14.3,6.7c0,1.5-0.7,2.9-1.3,4.3c-0.6,1.2-1.2,2.5-1.2,3.6c0,34.7,0,49-3.8,64.7l0,0.1
				C2076.5,248.7,2072.2,253.9,2067.8,253.9z M1899.3,156.6c-2.9,0-4.2-2.1-4.2-4c0-2.2,2-4.6,6-7.1c25.8-19.9,45.7-45.4,59.1-75.5
				l0-0.1c-1.3-2.1-8.3-7.1-13.1-10.5c-3.2-2-4.7-4.6-4.1-7c0.7-2.4,3.1-3.7,7.2-3.7c9,0,17.6,4.7,28.7,11.3l0.1,0.1
				c3.4,2.3,5,4.8,5,7.9c0,5.3-10.2,21.4-14.8,28.2c5,5.8,9,9.8,13.3,13.1c2,1.4,3.9,2.4,5.7,3.3c6.3,3.2,12.3,6.2,20.4,24.6
				l0.1,0.2l0.1,0.2c0.3,1.1,0.6,2.3,0.6,3.7c0,5.1-3.2,8.9-7.4,8.9c-3.3,0-6.5-1.9-9.5-5.8c-2.8-3.3-6.8-8.1-11.4-13.7
				c-5.8-7-12.8-15.6-19.9-24C1935,138.4,1904.5,156.6,1899.3,156.6z M2027.5,151.4c-2.3,0-7.7-1.5-7.7-15.1V51.5
				c-0.5-4-7.1-7.4-14.6-10.8l-0.1,0c-3.7-1.8-7.1-3.5-7.1-6.6c0-4.2,5.9-5,11.4-5.5l0.4,0l0.4,0.1c25.3,4.3,31.2,6.7,31.2,12.8
				c0,1-0.2,1.9-0.4,2.8c-0.2,0.9-0.4,1.7-0.4,2.7v53.5l24.9-0.8V42.1c-0.2-2.9-6.2-7.3-17.9-13.1c-3.1-1-6.6-2.8-6.6-6
				c0-3.5,3.6-5.4,10.8-5.7l0.4,0l0.4,0.1c29.6,5.8,34.8,9.7,34.8,15.8c0,1.3-0.3,2.5-0.5,3.6c-0.2,1.1-0.5,2.1-0.5,3l-1.5,83.3
				c-0.5,15.4-5.2,26.2-11.4,26.2c-2.2,0-7.3-1.5-7.7-15.5l-0.2-21.2l-25.1,0.6l-1.1,15.8C2038.1,142.4,2033.3,151.4,2027.5,151.4z"
				/>
			<path class="st2" d="M2052,20.3c27.9,5.4,32.4,8.9,32.4,12.8c0,2-1,4.2-1,6.7l-1.5,83.2c-0.5,14.8-4.9,23.2-8.4,23.2
				c-2.2,0-4.4-3.9-4.7-12.6l-0.2-24.2l-30.9,0.7l-1.2,18.5c-1.2,12.4-5.4,19.8-8.9,19.8c-2.5,0-4.7-3.7-4.7-12.1v-85
				c-0.5-5.7-7.7-9.4-16.3-13.3c-2.5-1.2-5.4-2.7-5.4-4c0-1,2.2-2,8.6-2.5c24.9,4.2,28.7,6.4,28.7,9.9c0,1.5-0.7,3.2-0.7,5.4v56.6
				l30.9-1V42c-0.2-5.2-9.4-10.6-19.8-15.8c-2.5-0.7-4.7-2-4.7-3.2C2044.1,21.7,2046.3,20.5,2052,20.3 M1950.2,51.6
				c8.4,0,16.8,4.7,27.2,10.9c3,2,3.7,3.7,3.7,5.4c0,3.7-8.7,18.5-15.6,28.4c5.2,6.2,9.9,11.1,15.3,15.3c9.1,6.4,15.1,3.7,25.2,26.7
				c0.2,1,0.5,2,0.5,3c0,3.5-2,5.9-4.4,5.9c-2,0-4.4-1.2-7.2-4.7c-6.7-7.9-20.2-24.7-33.6-40.5c-27.2,33.8-58.3,51.6-62,51.6
				c-0.7,0-1.2-0.2-1.2-1s1.2-2.5,4.7-4.7c23.7-18.3,45.2-43,60.3-77.1l0.2-1.2c-0.2-2.5-5.9-6.7-14.6-12.8
				C1945.5,54.8,1943.8,51.6,1950.2,51.6 M2066.8,164c1,0,2.2,0,3.7,0.2c9.4,0.5,11.6,2,11.6,3.7c0,2-2.5,4.7-2.5,7.9
				c0,34.3,0,48.7-3.7,64c-2,6.9-5.4,11.1-8.1,11.1c-2.2,0-3.9-2.7-3.9-8.9v-69.4c-15.1,0.7-54.8,2.2-85.5,3.2
				c-9.4,0.5-10.9,4.2-16.1,4.2c-6.7,0-25.2-9.4-25.2-12.1c0-0.7,1-1.2,3.2-1.2c1,0,2,0,3.5,0.2c9.1,1.5,22.7,2,37.8,2
				c24.2,0,52.1-1.2,72.1-2.2C2059.9,166.7,2059.4,164,2066.8,164 M2052.4,14.2l-0.7,0c-3.4,0.1-6,0.6-8,1.4c-5.2,2-5.6,6.1-5.6,7.3
				c0,2.3,1.1,6.4,8.4,8.8c5.1,2.6,8.8,4.7,11.5,6.5c3.5,2.4,4.3,3.8,4.5,4.1v54.3l-18.9,0.6V46.9c0-0.6,0.1-1.3,0.3-2
				c0.2-1,0.4-2.1,0.4-3.4c0-7-6.7-9.5-8.9-10.3c-4.6-1.7-12-3.4-24.8-5.5l-0.7-0.1l-0.7,0.1c-3.5,0.3-6.2,0.7-8.1,1.3
				c-5.5,1.8-6.1,5.6-6.1,7.1c0,4.9,4.7,7.3,8.8,9.3l0.1,0l0.1,0c3.4,1.5,12.2,5.6,12.8,8.2v84.6c0,4.8,0.7,8.7,1.9,11.6
				c2.6,5.9,7,6.5,8.8,6.5c7.6,0,13.3-9.6,14.9-25.2l0-0.1l0-0.1l0.9-13.1l19.3-0.5l0.2,18.1v0.1v0.1c0.1,4.8,0.8,8.7,2.1,11.7
				c2.5,6.1,6.9,6.7,8.6,6.7c8.2,0,13.8-11.4,14.4-29v-0.1v-0.1l1.5-83.2v0v0c0-0.6,0.2-1.5,0.4-2.4c0.3-1.2,0.6-2.7,0.6-4.3
				c0-1.8,0-7.2-9.3-11.3c-5.3-2.4-14.2-4.7-27.9-7.4L2052.4,14.2L2052.4,14.2z M1950.2,45.6c-7.3,0-9.5,3.7-10.1,5.8
				c-1.1,3.7,0.9,7.6,5.3,10.3c3.5,2.5,8.9,6.4,11.3,8.6c-13.2,28.9-32.4,53.4-57.4,72.6c-4.9,3.2-7.2,6.3-7.2,9.6c0,4,3.1,7,7.2,7
				c6.3,0,22.6-11.9,25.8-14.3c9.3-6.9,22.7-18.2,36.2-34c6.2,7.5,12.4,14.9,17.6,21.2c4.6,5.6,8.6,10.4,11.4,13.7
				c4.5,5.7,8.9,6.9,11.8,6.9c5.9,0,10.4-5.2,10.4-11.9c0-1.7-0.4-3.2-0.7-4.4l-0.1-0.5l-0.2-0.5c-7.9-18-13.8-22-21.8-26.1
				c-1.8-0.9-3.5-1.8-5.3-3c-3.7-2.8-7.2-6.2-11.3-10.9c2.8-4.3,5.7-9,8.1-13.2c5.9-10.6,5.9-13.5,5.9-14.8c0-4.1-2.1-7.6-6.4-10.4
				l-0.1-0.1l-0.1-0.1C1968.9,50.5,1960,45.6,1950.2,45.6L1950.2,45.6z M2066.8,158c-5.1,0-7.7,1.1-9.6,1.9
				c-1.2,0.5-1.8,0.8-3.5,0.8h-0.1l-0.1,0c-19.2,0.9-47.6,2.2-71.8,2.2c-16.9,0-28.9-0.6-36.8-1.9c-1.9-0.3-3.3-0.3-4.4-0.3
				c-8.9,0-9.2,6.5-9.2,7.2c0,3.5,2.3,7,13.4,12.4c3.4,1.7,12.1,5.6,17.7,5.6c3.6,0,6.2-1.2,8.2-2.1c2.1-1,4.1-1.9,8.1-2.1
				c27.9-0.9,61.5-2.1,79.2-2.9v63.1c0,13.8,7.6,14.9,9.9,14.9c5.9,0,11.2-5.9,13.9-15.5l0-0.1l0-0.1c3.9-16,3.9-30.5,3.9-65.4
				c0-0.4,0.5-1.6,0.9-2.3c0.7-1.5,1.6-3.4,1.6-5.6c0-8.6-11.3-9.4-17-9.7C2069.3,158,2067.8,158,2066.8,158L2066.8,158z"/>
		</g>
		<g>
			<path class="st2" d="M2221,236.9c-3.3,0-7.5-2.8-8.9-16.3l-3.5-52.9c-0.3-2.9-3.1-4.6-12.7-8c-2-0.5-7.8-2.4-7.8-6.3
				c0-2.1,1.7-5.7,13.4-5.7c10.8,0,23.4,1.8,28.3,3.2l67.6-1.2c2.4-0.2,3.4-0.6,4.6-1.1c1.6-0.6,3.4-1.4,7.4-1.4
				c11,0,16.6,2.3,16.6,6.9c0,1.8-1,3.4-2.1,5.1c-0.6,0.9-1.2,1.9-1.5,2.8c-2.1,8.4-4.1,16.6-5.8,23.8c-2,8.2-3.8,15.5-5,20.5
				c6.1,1.7,12.2,4.4,12.2,8.9c0,1.7-1,5.7-10.7,5.7l-82.4,1.2C2229.1,231.3,2225.4,236.9,2221,236.9z M2231.1,210.1l52.7-1.2
				c6.9-0.6,7.8-0.8,11.6-1.9c0.5-0.1,1-0.3,1.6-0.4l3.1-45l-68.3,1.4c-0.2,0.2-0.5,0.3-0.7,0.5c-0.3,0.2-0.7,0.4-0.9,0.6
				L2231.1,210.1z M2159.8,128.5c-4.4,0-13.2-3-20-6c-15.1-6.8-15.1-10.6-15.1-12c0-1.1,0.4-4.5,6-4.5c1.1,0,2.8,0,4.8,0.6
				c14.1,2,28.7,2.9,47.3,2.9c10.5,0,22.6-0.3,39-1.1l0.2-31.4c-0.3-2.8-9.9-5.1-13-5.8l-0.2,0c-4.9-1.5-7.3-3.5-7.3-6.1
				c0-5,8-5.7,10.6-5.9l0.3,0l0.3,0c24.1,1.9,31.2,3.6,31.2,10.6c0,1-0.2,2-0.4,3.1c-0.2,1.1-0.4,2.3-0.4,3.6l-1.4,31.3
				c15.3-0.1,26.8-0.8,52.4-2.4h0.1c8.2-1,11.6-2.3,14.7-3.4c3.1-1.2,5.8-2.2,11.8-2.2c8.6,0,28.7,1.2,28.7,12.1
				c0,4-3.5,8.2-13.4,8.2h-2.6l-0.1,0c-13.3-1-29.5-1.5-47-1.5c-36.5,0-79.2,2.2-111.6,5.6c-3,0.7-5.1,1.6-6.9,2.4
				C2165.4,127.5,2163.1,128.5,2159.8,128.5z M2284.5,97.9c-2.1,0-4.5-1.5-4.5-5.7c0-1.5,0.3-3.4,0.8-5.8l0-0.1
				c3.7-14.2,7.2-30.6,8.6-53.7c-21.4,0.4-65.6,2.5-90.8,5.1c-2.9,0.4-5,1.1-6.8,1.8c-2.2,0.8-4.2,1.5-6.9,1.5
				c-5.2,0-13.6-4.1-17.1-5.9c-11.9-6.2-11.9-8.7-11.9-9.9c0-1.8,1-4,5.7-4c1.9,0,4.2,0.2,7.4,0.8c8.3,1.1,19.4,1.7,32.9,1.7
				c26.2,0,72.4-2.8,83.9-3.9c2.6-0.2,3.6-0.6,4.8-1c1.8-0.6,3.6-1.2,8.3-1.2c12.7,0,18.8,2.3,18.8,7c0,2.1-1.2,3.8-2.5,5.6
				c-0.9,1.2-1.8,2.6-2.3,3.9c-1,3.7-2,7.4-3,11.1c-4.7,17.8-9.2,34.6-17.6,47l-0.1,0.1l-0.1,0.1C2288,97.2,2286,97.9,2284.5,97.9z"
				/>
			<path class="st2" d="M2299.1,20.3c5.9,0,15.8,0.7,15.8,3.9c0,2.2-3.5,4.9-4.7,8.6c-5.9,21.2-10.4,42.7-20.2,57.3
				c-2.5,3-4.4,4.7-5.4,4.7s-1.5-1-1.5-2.7c0-1.2,0.2-3,0.7-5.2c3.9-15.3,7.7-32.6,8.9-57.5c-19.8,0.2-67.9,2.5-94.4,5.2
				c-6.7,1-9.1,3.2-13.3,3.2c-7.2,0-25.9-10.6-25.9-12.8c0-0.7,0.7-1,2.7-1c1.7,0,3.9,0.2,6.9,0.7c9.1,1.2,20.7,1.7,33.3,1.7
				c25.9,0,72.1-2.7,84.2-4C2292.6,22,2291.4,20.3,2299.1,20.3 M2212.4,62c24.7,2,28.4,3.7,28.4,7.7c0,1.7-0.7,4-0.7,6.7l-1.5,34.3
				c17,0,28.6-0.7,55.8-2.5c17-2,15.1-5.7,26.2-5.7c1.2,0,25.7,0,25.7,9.1c0,3-3.7,5.2-10.4,5.2h-2.5c-13.6-1-29.9-1.5-47.2-1.5
				c-37.3,0-80,2.2-112.1,5.7c-7.4,1.7-9.4,4.4-14.3,4.4c-7.2,0-32.1-10.4-32.1-15.1c0-1,1-1.5,3-1.5c1,0,2.5,0,4.2,0.5
				c15.6,2.2,30.9,3,47.9,3c12.6,0,26.4-0.5,42-1.2l0.2-34.3c-0.2-4.4-6.9-6.7-15.3-8.6c-3.2-1-5.2-2.2-5.2-3.2
				C2204.5,63.7,2206.9,62.5,2212.4,62 M2309.4,150.2c2.5,0,13.6,0.2,13.6,3.9c0,1.7-2.5,4.2-3.5,6.9c-4.9,20.2-9.6,39-11.6,47.4
				c8.9,2,12.8,4.7,12.8,6.7c0,1.5-2.7,2.7-7.7,2.7l-85,1.2c-1.2,9.6-4.4,14.8-7.2,14.8c-2.5,0-4.9-4.2-5.9-13.6l-3.5-52.8
				c-0.5-4.9-4.9-7.2-14.8-10.6c-3-0.7-5.7-2.2-5.7-3.5c0-1,2.5-2.7,10.4-2.7c11.4,0,24,2,27.9,3.2l68.2-1.2
				C2303.7,152.2,2303,150.2,2309.4,150.2 M2303.2,158.6l-72.6,1.5c-0.7,1-3.5,1.5-3.5,3.9l1,49.1l55.8-1.2c9.1-0.7,8.4-1,15.8-3
				L2303.2,158.6 M2299.1,14.3c-4.9,0-7,0.6-9.3,1.4c-1.1,0.4-1.9,0.7-4,0.8l-0.1,0l-0.1,0c-11.5,1.2-57.5,3.9-83.6,3.9
				c-13.3,0-24.2-0.6-32.4-1.7c-3.4-0.6-5.8-0.8-7.8-0.8c-1.2,0-2.7,0.1-4.1,0.6c-2.8,1-4.6,3.5-4.6,6.4c0,2.8,1,6,13.5,12.6
				c4.5,2.3,12.8,6.3,18.4,6.3c3.2,0,5.5-0.8,7.9-1.6c1.8-0.6,3.6-1.2,6.2-1.6c23.2-2.4,64.7-4.4,87.2-5
				c-1.5,21.2-4.9,36.5-8.3,49.9l0,0.1l0,0.1c-0.6,2.7-0.9,4.8-0.9,6.5c0,4.2,2.3,8.7,7.5,8.7c3.1,0,5.9-1.9,10-6.8l0.2-0.2l0.2-0.2
				c8.7-12.9,13.3-29.9,18.1-47.9c0.9-3.6,1.9-7.3,3-10.9c0.3-0.9,1.1-2,1.9-3.1c1.4-2,3.1-4.3,3.1-7.4c0-3.3-1.8-7.5-10.6-9.1
				C2306.1,14.4,2301.5,14.3,2299.1,14.3L2299.1,14.3z M2212.3,56l-0.5,0c-3.2,0.3-5.7,0.8-7.7,1.6c-5.1,2.1-5.7,5.8-5.7,7.3
				c0,6.1,7.1,8.2,9.4,9l0.2,0.1l0.2,0.1c7.3,1.7,9.8,3,10.7,3.7l-0.2,27.7c-14.9,0.7-26.2,1-36,1c-18.3,0-32.8-0.9-46.7-2.8
				c-2.4-0.6-4.3-0.6-5.4-0.6c-7.1,0-9,4.7-9,7.5c0,4.3,3.6,7.2,6.7,9.3c3.3,2.2,7.4,4.2,10.2,5.4c6.5,2.9,16,6.3,21.2,6.3
				c3.9,0,6.6-1.2,9.2-2.3c1.7-0.8,3.5-1.6,6.1-2.2c32.3-3.5,74.8-5.6,111.1-5.6c17.4,0,33.5,0.5,46.7,1.5l0.2,0h0.2h2.5
				c12.1,0,16.4-6,16.4-11.2c0-13.7-22.2-15.1-31.7-15.1c-6.6,0-9.6,1.2-12.9,2.4c-2.8,1.1-6,2.3-13.8,3.3
				c-23.7,1.5-35.3,2.2-49,2.4l1.2-28l0-0.1v-0.1c0-1,0.2-2,0.4-3.1c0.2-1.1,0.4-2.3,0.4-3.6c0-5.1-3.1-8.5-9.3-10.3
				c-4.5-1.3-11.6-2.3-24.7-3.3L2212.3,56L2212.3,56z M2309.4,144.2c-4.2,0-6.4,0.7-8.5,1.6c-1.1,0.4-1.8,0.7-3.6,0.9l-67.1,1.2
				c-5.3-1.4-17.5-3.2-28.7-3.2c-4.2,0-7.6,0.4-10.1,1.3c-5.6,2-6.3,5.8-6.3,7.4c0,4.2,3.6,7.6,9.9,9.2c5.4,1.9,10.3,3.8,10.6,5.4
				l3.4,52.7l0,0.1l0,0.1c0.9,8.6,3.7,19,11.9,19c2.8,0,9.2-1.6,12.2-14.9l79.9-1.2c12.6,0,13.6-6.7,13.6-8.7
				c0-4.7-3.9-8.3-11.7-10.9c1.2-4.8,2.7-10.9,4.4-17.7c1.8-7.2,3.8-15.3,5.8-23.6c0.3-0.6,0.8-1.4,1.2-2.1c1.2-1.9,2.5-4,2.5-6.7
				c0-3.4-1.9-7.8-10.9-9.3C2314.6,144.2,2310.8,144.2,2309.4,144.2L2309.4,144.2z M2233.2,166l63.6-1.3l-2.7,39.6
				c-3.2,0.9-4.1,1.1-10.4,1.6L2234,207L2233.2,166L2233.2,166z"/>
		</g>
	</g>
	<g>
		<g>
			<path class="st2" d="M467.4,139.9h66.4v119.7h-19.6l-7.5-17.7c-12.1,14.4-21.9,20.9-40.9,20.9c-32,0-54.3-22.9-54.3-60.5V80.8
				c0-33.3,19.6-60.5,59.5-60.5c40.5,0,60.8,29.4,60.8,64.7v15h-38.6c0-35.3-7.2-44.5-23.2-44.5c-9.8,0-18,5.9-18,25.8v121.3
				c0,15,4.9,24.9,19,24.9c16.4,0,22.2-9.2,22.2-32.7V172h-25.8V139.9z"/>
			<path class="st2" d="M599.1,259.6h-40.5V23.5h56.9c45.5,0,68.7,19.3,68.7,69.6c0,37.9-14.7,53.3-28.5,59.5L690,259.6h-41.2
				l-28.8-97.8c-5.2,0.6-13.7,1-20.9,1L599.1,259.6L599.1,259.6z M599.1,129.5h14.4c21.9,0,30.1-8.2,30.1-36.3s-8.2-36.3-30.1-36.3
				h-14.4V129.5z"/>
			<path class="st2" d="M938.4,259.6h-40.5v-98.1l-49-138H890l28.5,89.9h0.7l27.1-89.9h41.2l-49.1,138V259.6z"/>
		</g>
		<path class="st2" d="M882.9,172h-47.1L808.4,23.5H758L730.7,172h-47.4v35.1h40.9l-9.7,52.5h39.2l7.2-52.3h44.5l7.2,52.3h39.2
			l-9.7-52.5h40.7L882.9,172L882.9,172z M766.9,172l16-101.4h0.7l16,101.4L766.9,172L766.9,172z"/>
	</g>
	<g>
		<g>
			<g>
				<path class="st5" d="M1013.3,23.5h60.2c43.5,0,62.8,22.2,62.8,62.4c0,20.3-8.5,41.5-28.1,49.4c20.6,9.2,32.7,25.5,32.7,55.9
					c0,38.9-17.3,68.3-63.4,68.3h-64.1V23.5z M1053.9,120.3h14.7c15.4,0,27.1-10.5,27.1-30.1c0-21.9-8.5-33.3-26.5-33.3h-15.4
					L1053.9,120.3L1053.9,120.3z M1053.9,226.3h17c21.6,0,29.4-12.4,29.4-36.3c0-24.2-9.2-36.3-33.3-36.3h-13.1L1053.9,226.3
					L1053.9,226.3z"/>
				<path class="st5" d="M1160.5,259.6V23.5h108.6v35.3h-68v60.8h52.3V155H1201v69.3h72.6v35.3L1160.5,259.6L1160.5,259.6z"/>
				<path class="st5" d="M1535.2,259.6h-40.5V23.5h56.9c45.4,0,68.7,19.3,68.7,69.6c0,37.9-14.7,53.3-28.4,59.5l34.3,106.9h-41.2
					l-28.8-97.8c-5.2,0.6-13.7,1-20.9,1V259.6z M1535.2,129.5h14.4c21.9,0,30.1-8.2,30.1-36.3c0-28.1-8.2-36.3-30.1-36.3h-14.4
					V129.5z"/>
			</g>
		</g>
		<g>
			<path class="st5" d="M1349.1,24.7l-27.3,148.5h-47.4v35.1h40.9l-9.7,52.5h39.2l7.2-52.3h44.5l7.2,52.3h39.2l-43.5-236.1H1349.1z
				 M1357.9,173.1l16-101.4h0.7l16,101.4H1357.9z"/>
			<polygon class="st5" points="1426.7,172.4 1433.2,207.5 1474.1,207.5 1474.1,172.4 			"/>
		</g>
	</g>
</g>
</svg>
