<?xml version="1.0" encoding="UTF-8"?>
<svg xmlns="http://www.w3.org/2000/svg" version="1.1" viewBox="0 0 2355.4 270.9">
  <defs>
    <style>
      .cls-1 {
        fill: #231f20;
      }

      .cls-2 {
        fill: none;
        stroke: #231f20;
        stroke-miterlimit: 10;
        stroke-width: 8.3px;
      }

      .cls-3 {
        fill: #fff;
      }

      .cls-4 {
        fill: #404041;
      }

      .cls-5 {
        fill: #221f1f;
      }

      .cls-6 {
        fill: #898989;
      }
    </style>
  </defs>
  <!-- Generator: Adobe Illustrator 28.6.0, SVG Export Plug-In . SVG Version: 1.2.0 Build 709)  -->
  <g>
    <g id="Layer_1">
      <g id="icon">
        <g>
          <path class="cls-4" d="M320.4,171.1c0-73.1-59.3-132.4-132.4-132.4S55.6,98,55.6,171.1s59.3,99,132.4,99,132.4-25.9,132.4-99Z"/>
          <path class="cls-1" d="M188,41.4c17.5,0,34.5,3.4,50.5,10.2,15.4,6.5,29.3,15.9,41.2,27.8s21.3,25.8,27.8,41.2c6.8,16,10.2,33,10.2,50.5,0,33.3-12.6,58.4-37.5,74.6-11.3,7.4-25.1,12.9-41.2,16.5-15.1,3.4-32.2,5.1-50.9,5.1s-35.9-1.7-50.9-5.1c-16.1-3.6-29.9-9.2-41.2-16.5-24.9-16.2-37.5-41.4-37.5-74.6s3.4-34.5,10.2-50.5c6.5-15.4,15.9-29.3,27.8-41.2s25.8-21.3,41.2-27.8c15.8-6.7,32.8-10.2,50.3-10.2M188,38.7h0c-73.1,0-132.4,59.3-132.4,132.4s59.3,99,132.4,99h0c73.1,0,132.4-25.9,132.4-99S261.1,38.7,188,38.7h0Z"/>
        </g>
        <g>
          <path class="cls-4" d="M356.4,60.1c-18.3-33.9-55.8-49.1-83.9-34-8.8,4.8-15.6,11.9-20.3,20.6,12.8,6.6,24.5,15.1,34.8,25.4,12.9,12.8,22.9,27.8,30,44.5,5,11.8,8.3,24.1,9.9,36.8,4-1,8-2.4,11.8-4.5,28-15.1,36-54.9,17.7-88.8Z"/>
          <path class="cls-1" d="M296,23c22.6,0,45.4,15.1,58,38.4,17.5,32.5,10.1,70.7-16.6,85.1-2.6,1.4-5.4,2.6-8.2,3.4-1.8-11.8-5-23.3-9.7-34.4-7.2-17-17.5-32.2-30.6-45.4-9.8-9.8-20.9-18.1-32.9-24.6,4.4-7.3,10.6-13.2,17.8-17.1,6.8-3.6,14.3-5.4,22.2-5.4M296,20.3c-8.1,0-16.2,1.9-23.5,5.9-8.8,4.8-15.6,11.9-20.3,20.6,12.8,6.6,24.5,15.1,34.8,25.4,12.9,12.8,22.9,27.8,30,44.5,5,11.8,8.3,24.1,9.9,36.8,4-1,8-2.4,11.8-4.5,28.1-15.1,36-54.9,17.7-88.8-13.5-25.1-37.5-39.9-60.4-39.9h0Z"/>
        </g>
        <g>
          <path class="cls-4" d="M59,116.6c7-16.7,17.1-31.6,30-44.5,10.3-10.3,22-18.8,34.8-25.4-4.7-8.7-11.5-15.8-20.3-20.6-28.1-15.1-65.6.1-83.9,34s-10.3,73.7,17.7,88.8c3.8,2,7.7,3.5,11.8,4.5,1.7-12.7,5-25,9.9-36.8Z"/>
          <path class="cls-1" d="M80,23c8,0,15.4,1.9,22.2,5.5,7.2,3.9,13.4,9.8,17.8,17.1-12,6.5-23.1,14.8-32.9,24.6-13.1,13.1-23.4,28.4-30.6,45.4-4.7,11-7.9,22.6-9.7,34.4-2.8-.9-5.6-2-8.2-3.4-26.6-14.5-34.1-52.7-16.5-85.2,12.5-23.3,35.3-38.4,57.9-38.4M80,20.3c-22.9,0-46.9,14.8-60.4,39.9-18.2,33.8-10.3,73.6,17.8,88.7,3.8,2,7.7,3.5,11.8,4.5,1.6-12.6,4.9-24.9,9.9-36.8,7.1-16.7,17.2-31.6,30-44.5,10.3-10.3,22-18.8,34.8-25.4-4.7-8.7-11.5-15.8-20.3-20.6-7.4-4-15.4-5.8-23.6-5.8h0Z"/>
        </g>
        <g>
          <path class="cls-3" d="M125.7,165.3c0-10.5-8.5-18.9-18.9-18.9s-18.9,8.5-18.9,18.9,8.5,18.9,18.9,18.9,18.9-8.5,18.9-18.9Z"/>
          <path class="cls-5" d="M106.7,146.3c10.5,0,19,8.5,19,18.9s-8.5,18.9-18.9,18.9h0c-10.5,0-18.9-8.5-18.9-18.9,0-10.4,8.4-18.9,18.8-18.9h0M106.7,143.6c-5.8,0-11.2,2.2-15.3,6.4-4.1,4.1-6.3,9.5-6.3,15.3,0,11.9,9.7,21.7,21.7,21.7s21.7-9.7,21.7-21.7c0-12-9.8-21.7-21.8-21.7h0Z"/>
        </g>
        <g>
          <path class="cls-3" d="M250.4,165.3c0-10.5,8.5-18.9,18.9-18.9s19,8.5,19,18.9-8.5,18.9-19,18.9-18.9-8.5-18.9-18.9Z"/>
          <path class="cls-5" d="M269.3,146.3c10.5,0,19,8.5,19,18.9s-8.5,18.9-19,18.9-18.9-8.5-18.9-18.9,8.4-18.9,18.9-18.9M269.3,143.6c-5.8,0-11.2,2.2-15.3,6.4-4.1,4.1-6.4,9.5-6.4,15.3,0,11.9,9.7,21.7,21.7,21.7s21.7-9.7,21.7-21.7-9.7-21.7-21.7-21.7h0Z"/>
        </g>
        <g>
          <ellipse class="cls-3" cx="188" cy="219.6" rx="57.6" ry="40.5"/>
          <path class="cls-5" d="M188,261.5c-32.5,0-59-18.8-59-41.9s26.4-41.9,59-41.9,59,18.8,59,41.9-26.5,41.9-59,41.9ZM188,180.4c-31,0-56.2,17.6-56.2,39.2s25.2,39.2,56.2,39.2,56.2-17.6,56.2-39.2c.1-21.6-25.2-39.2-56.2-39.2Z"/>
        </g>
        <path class="cls-1" d="M154.7,243.1v-4.6c31.1,0,31.1-11.1,31.1-33.2h4.6c-.1,22-.1,37.8-35.7,37.8Z"/>
        <path class="cls-1" d="M221.4,243.1c-35.6,0-35.6-15.8-35.6-37.8h4.6c0,22.1,0,33.2,31.1,33.2v4.6h-.1Z"/>
        <path class="cls-1" d="M212.3,205.4c0-7.5-10.9-13.5-24.2-13.5s-24.2,6.1-24.2,13.5,24.2,13.5,24.2,13.5c0,0,24.2-6.1,24.2-13.5Z"/>
        <path class="cls-2" d="M228,230.2"/>
      </g>
      <g>
        <g>
          <g>
            <path d="M1841.6,255.2c-6.3,0-6.6-9.5-6.7-13v-67.5c-37,12.7-84.5,21.7-118.5,27.1-1.5.5-2.5,1.1-3.5,1.7-1.6,1-3.3,2-6.1,2-4,0-15.6-4.8-21.1-7.4-17.7-8.2-17.7-11.4-17.7-13.2s.6-4.5,6.2-4.5,2.3.2,3.8.4h.9c0,.1,0,.1,0,.1,6.2,1.4,13.6,2.1,22.1,2.1,13.6,0,29.8-1.9,45.4-3.8v-13.7c-11.1-1.6-20.6-5.9-27.6-12.5-7.1-6.7-10.9-15.3-10.9-24.2,0-14.2,10.4-31.1,39.7-36.1.2-.4.4-.9.4-1.7,0-1.9-1.4-4.3-3.8-6.6-2.9,0-5.8.4-9.2.6-3.4.3-7.2.6-11.5.8-2.3.5-3.8,1.2-5.2,1.8-1.7.8-3.3,1.4-5.6,1.4s-9.8-2.5-14.5-4.6c-11.7-5.2-11.7-7.9-11.7-9.3s.8-4.5,6.5-4.5,3.9.2,6.9.8c5.8.7,12.5,1,21.8,1,23.5,0,50.8-2.8,61.4-3.9,2.4-.3,3.3-.9,4.4-1.6,3.1-2,6.2-3.3,18.6-3.3s17.6,1.6,17.6,9.4-9.6,8.4-18.1,8.4c-12.8,0-24.8.6-41.3,1.4h-1.9c.9,1.1,1.8,2.3,2.7,4.3l.3.6v1.9c0,1.6-.5,2.8-.9,3.7,11.8,1.9,21.6,6.1,28.4,12.4,6.8,6.2,10.6,14.4,10.6,23,0,18-14.9,32.5-36.6,36v12.3c15.8-2,47.3-7,68.1-12.5V41.9c-.3-1.4-5.7-6.3-19.9-11.6-5.9-1.6-8.7-3.9-8.7-6.8,0-4.8,6.6-5.6,11-6.2h.4c11.3.4,20.4,3.1,27.8,5.2,1.2.4,2.4.7,3.6,1h.2c3.9,1.4,7.6,3.2,7.6,7.8s-.2,2.1-.4,3.1c-.3,1.3-.6,2.8-.6,4.5v153.6c0,21.3-.3,36.4-4.3,51.6v.2c0,0-.2.2-.2.2-2.1,5-5.5,10.7-10,10.7ZM1755.4,106.2c-18.6,0-27.1,11.1-27.1,21.5s8.5,21.2,27.1,21.2,27.6-6.6,27.6-21.2-8.6-21.5-27.6-21.5ZM1734.5,51.5c-4,0-10.9-4.4-13.7-6.3-9.8-6.7-9.8-9.5-9.8-10.5,0-1.9,1.3-4.2,5-4.2s2.5.3,4.3.6c.6.1,1.3.3,2.1.4,10.4,1.4,13.7,1.4,45.2,1.4h.2c9.9.7,13.4,5.2,13.4,8.9s-1.6,8.4-16.2,9.2l-30.5.5h0Z"/>
            <path d="M1817.6,20.3c12.8.5,22.7,3.9,30.6,6.2,4.7,1.7,5.7,3,5.7,4.9s-1,4.2-1,7.7v153.6c0,21-.2,35.8-4.2,50.9-2,4.7-4.7,8.6-7.2,8.6s-3.5-2.7-3.7-10.1v-71.6c-33.8,12.1-80.3,21.7-122.3,28.4-4.4,1.5-5.4,3.7-8.9,3.7-5.2,0-35.8-13.1-35.8-17.5s1-1.5,3.2-1.5,2.5.2,4.2.5c6.4,1.5,14.1,2.2,22.7,2.2,14.3,0,31.1-2,48.4-4.2v-19c-24.7-2.5-38.5-18.3-38.5-34.1s11.9-29.1,38.3-33.3c1.2-1.2,1.7-2.7,1.7-4.4,0-3.2-2.2-6.7-5.7-9.6-6.4.2-13.1,1-22.2,1.5-5.7,1.2-7.2,3.2-10.4,3.2s-23.2-7.9-23.2-10.9,1-1.5,3.5-1.5,3.7.2,6.4.7c6.4.7,13.6,1,22.2,1,22.2,0,48.4-2.5,61.7-3.9,8.7-1.2,3-4.9,22.7-4.9s14.6,0,14.6,6.4-6.9,5.4-15.1,5.4c-14.8,0-28.2.7-49.2,1.7,2,3.9,3.9,3.9,5.9,8.1v1.2c0,2.5-1.7,3.2-1.7,5.4v.7c27.4,3.2,39.8,18,39.8,32.9s-13.3,30.6-36.6,33.3v18.3c15.1-1.7,51.6-7.4,74.1-13.6V41.7c-.2-4-9.4-9.6-22-14.3-4.4-1.2-6.7-2.7-6.7-4,.3-1.4,2.8-2.4,8.7-3.1M1755.4,151.9c20.5,0,30.6-12.1,30.6-24.2s-10.1-24.4-30.6-24.4-30.1,12.3-30.1,24.4,10.1,24.2,30.1,24.2M1716,33.4c1.2,0,3.2.5,5.9,1,10.6,1.5,14.1,1.5,45.7,1.5,6.9.5,10.6,3.2,10.6,5.9s-4.2,5.7-13.3,6.2l-30.4.5c-4.7,0-20.5-10.9-20.5-13.8,0-.8.5-1.3,2-1.3M1817.4,14.2h-.5c-3.5.5-6,1.1-7.8,1.8-5.2,2-5.8,5.9-5.8,7.5,0,6.5,7.8,8.8,10.8,9.7,11,4.1,16.5,8,17.8,9.6v119.3c-19.2,4.9-46.2,9.3-62.1,11.4v-6.4c10-2,18.7-6.4,25.2-12.7,7.3-7.1,11.4-16.3,11.4-25.8,0-14.3-10.1-32.1-38.1-37.7,0-.4,0-.8,0-1.3v-2.5l-.6-1.2s0,0,0,0c14.8-.7,25.9-1.2,37.8-1.2s8.6,0,12-.8c8.2-2,9-8.1,9-10.6s-1.1-9.1-10.8-11.4c-4-1-8.1-1-9.8-1-13.2,0-16.7,1.6-20.2,3.8-1,.6-1.4.9-3.2,1.2-10.7,1.2-37.7,3.9-61,3.9s-15.7-.3-21.3-.9c-3.1-.6-5.3-.8-7.3-.8-9,0-9.5,6.2-9.5,7.5,0,4.4,3.7,7.6,13.5,12,2.5,1.1,11.2,4.8,15.7,4.8s5-.9,6.8-1.7c1.2-.5,2.5-1.1,4.4-1.5,4.2-.2,8-.5,11.3-.8,2.8-.2,5.3-.4,7.8-.6,1,1.1,1.5,2,1.8,2.7-29.3,5.8-39.8,23.6-39.8,38.6s4.2,19.1,11.9,26.4c6.9,6.6,16,11,26.7,12.9v8.5c-14.7,1.9-29.7,3.5-42.4,3.5s-15.4-.7-21.4-2.1h-.2c0-.1-.2-.1-.2-.1h-.8c-1.6-.3-3-.5-4.2-.5-8.9,0-9.2,6.7-9.2,7.5,0,4.3,3.7,7.2,7.7,9.7,3.8,2.4,8.5,4.7,11.8,6.2,1.7.8,16.8,7.6,22.4,7.6s6-1.4,7.7-2.5c.9-.5,1.6-1,2.7-1.4,32.9-5.2,78.3-13.8,114.8-25.8v63.1h0v.2c0,4.3.7,7.5,1.6,9.9,2.2,5.4,6.4,6,8.1,6,5,0,9.2-4.1,12.7-12.3l.2-.4v-.4c4.2-15.6,4.5-30.9,4.5-52.4V39c0-1.4.3-2.7.5-3.9s.5-2.4.5-3.7c0-7-6.5-9.4-9.6-10.6h-.2c0-.1-.2-.2-.2-.2-1.1-.3-2.3-.7-3.5-1-7.5-2.2-16.8-4.9-28.5-5.4h-.9ZM1755.4,145.9c-11.6,0-24.1-5.7-24.1-18.2s7.6-18.4,24.1-18.4,24.6,5.8,24.6,18.4-7.6,18.2-24.6,18.2h0ZM1716,27.4c-5.5,0-8,3.8-8,7.2s0,5.4,11.1,13c4.6,3.1,11,6.8,15.4,6.8h.2l30.3-.4h.2c17.2-.9,19-8.8,19-12.2,0-5-4.2-11.1-16.2-11.9h-.4c-31.2,0-34.6,0-44.7-1.4-.7-.1-1.4-.3-2-.4-2-.4-3.5-.7-4.9-.7h0Z"/>
          </g>
          <g>
            <path d="M2067.8,253.9c-2.1,0-6.9-1.2-6.9-11.9v-66.3c-16.5.8-52.7,2.1-82.4,3.1-4.6.2-6.9,1.3-9.2,2.4-2,.9-4,1.9-6.9,1.9-5.2,0-13.9-4.1-16.4-5.3-11.8-5.8-11.8-8.5-11.8-9.8s.6-4.2,6.2-4.2,2.2,0,3.9.3c8,1.3,20.2,1.9,37.3,1.9,24.3,0,52.7-1.3,72-2.2h.1c2.3,0,3.3-.4,4.7-1,1.8-.8,3.9-1.7,8.4-1.7s2.4,0,4,.3c6.9.4,14.3,1.2,14.3,6.7s-.7,2.9-1.3,4.3c-.6,1.2-1.2,2.5-1.2,3.6,0,34.7,0,49-3.8,64.7h0c-2.3,8-6.6,13.2-11,13.2ZM1899.3,156.6c-2.9,0-4.2-2.1-4.2-4s2-4.6,6-7.1c25.8-19.9,45.7-45.4,59.1-75.5h0c-1.3-2.2-8.3-7.2-13.1-10.6-3.2-2-4.7-4.6-4.1-7,.7-2.4,3.1-3.7,7.2-3.7,9,0,17.6,4.7,28.7,11.3h0c3.4,2.4,5,4.9,5,8,0,5.3-10.2,21.4-14.8,28.2,5,5.8,9,9.8,13.3,13.1,2,1.4,3.9,2.4,5.7,3.3,6.3,3.2,12.3,6.2,20.4,24.6v.2c0,0,.2.2.2.2.3,1.1.6,2.3.6,3.7,0,5.1-3.2,8.9-7.4,8.9s-6.5-1.9-9.5-5.8c-2.8-3.3-6.8-8.1-11.4-13.7-5.8-7-12.8-15.6-19.9-24-26.2,31.7-56.7,49.9-61.9,49.9ZM2027.5,151.4c-2.3,0-7.7-1.5-7.7-15.1V51.5c-.5-4-7.1-7.4-14.6-10.8h0c-3.7-1.8-7.1-3.5-7.1-6.6s5.9-5,11.4-5.5h.8c25.3,4.4,31.2,6.8,31.2,12.9s-.2,1.9-.4,2.8c-.2.9-.4,1.7-.4,2.7v53.5l24.9-.8v-57.6c-.2-2.9-6.2-7.3-17.9-13.1-3.1-1-6.6-2.8-6.6-6s3.6-5.4,10.8-5.7h.8c29.6,5.9,34.8,9.8,34.8,15.9s-.3,2.5-.5,3.6-.5,2.1-.5,3l-1.5,83.3c-.5,15.4-5.2,26.2-11.4,26.2s-7.3-1.5-7.7-15.5l-.2-21.2-25.1.6-1.1,15.8c-1.3,13.4-6.1,22.4-11.9,22.4Z"/>
            <path d="M2052,20.3c27.9,5.4,32.4,8.9,32.4,12.8s-1,4.2-1,6.7l-1.5,83.2c-.5,14.8-4.9,23.2-8.4,23.2s-4.4-3.9-4.7-12.6l-.2-24.2-30.9.7-1.2,18.5c-1.2,12.4-5.4,19.8-8.9,19.8s-4.7-3.7-4.7-12.1V51.3c-.5-5.7-7.7-9.4-16.3-13.3-2.5-1.2-5.4-2.7-5.4-4s2.2-2,8.6-2.5c24.9,4.2,28.7,6.4,28.7,9.9s-.7,3.2-.7,5.4v56.6l30.9-1v-60.4c-.2-5.2-9.4-10.6-19.8-15.8-2.5-.7-4.7-2-4.7-3.2,0-1.3,2.1-2.5,7.8-2.7M1950.2,51.6c8.4,0,16.8,4.7,27.2,10.9,3,2,3.7,3.7,3.7,5.4,0,3.7-8.7,18.5-15.6,28.4,5.2,6.2,9.9,11.1,15.3,15.3,9.1,6.4,15.1,3.7,25.2,26.7.2,1,.5,2,.5,3,0,3.5-2,5.9-4.4,5.9s-4.4-1.2-7.2-4.7c-6.7-7.9-20.2-24.7-33.6-40.5-27.2,33.8-58.3,51.6-62,51.6s-1.2-.2-1.2-1,1.2-2.5,4.7-4.7c23.7-18.3,45.2-43,60.3-77.1l.2-1.2c-.2-2.5-5.9-6.7-14.6-12.8-3.2-2-4.9-5.2,1.5-5.2M2066.8,164c1,0,2.2,0,3.7.2,9.4.5,11.6,2,11.6,3.7s-2.5,4.7-2.5,7.9c0,34.3,0,48.7-3.7,64-2,6.9-5.4,11.1-8.1,11.1s-3.9-2.7-3.9-8.9v-69.4c-15.1.7-54.8,2.2-85.5,3.2-9.4.5-10.9,4.2-16.1,4.2s-25.2-9.4-25.2-12.1,1-1.2,3.2-1.2,2,0,3.5.2c9.1,1.5,22.7,2,37.8,2,24.2,0,52.1-1.2,72.1-2.2,6.2,0,5.7-2.7,13.1-2.7M2052.4,14.2h-.7c-3.4.1-6,.6-8,1.4-5.2,2-5.6,6.1-5.6,7.3,0,2.3,1.1,6.4,8.4,8.8,5.1,2.6,8.8,4.7,11.5,6.5,3.5,2.4,4.3,3.8,4.5,4.1v54.3l-18.9.6v-50.3c0-.6,0-1.3.3-2,.2-1,.4-2.1.4-3.4,0-7-6.7-9.5-8.9-10.3-4.6-1.7-12-3.4-24.8-5.5h-.7c0-.1-.7,0-.7,0-3.5.3-6.2.7-8.1,1.3-5.5,1.8-6.1,5.6-6.1,7.1,0,4.9,4.7,7.3,8.8,9.3h.2c3.4,1.5,12.2,5.6,12.8,8.2v84.6c0,4.8.7,8.7,1.9,11.6,2.6,5.9,7,6.5,8.8,6.5,7.6,0,13.3-9.6,14.9-25.2h0v-.2l.9-13.1,19.3-.5.2,18.1h0v.2c.1,4.8.8,8.7,2.1,11.7,2.5,6.1,6.9,6.7,8.6,6.7,8.2,0,13.8-11.4,14.4-29h0v-.2l1.5-83.2h0c0-.6.2-1.5.4-2.4.3-1.2.6-2.7.6-4.3s0-7.2-9.3-11.3c-5.3-2.4-14.2-4.7-27.9-7.4h-.8ZM1950.2,45.6c-7.3,0-9.5,3.7-10.1,5.8-1.1,3.7.9,7.6,5.3,10.3,3.5,2.5,8.9,6.4,11.3,8.6-13.2,28.9-32.4,53.4-57.4,72.6-4.9,3.2-7.2,6.3-7.2,9.6s3.1,7,7.2,7c6.3,0,22.6-11.9,25.8-14.3,9.3-6.9,22.7-18.2,36.2-34,6.2,7.5,12.4,14.9,17.6,21.2,4.6,5.6,8.6,10.4,11.4,13.7,4.5,5.7,8.9,6.9,11.8,6.9,5.9,0,10.4-5.2,10.4-11.9s-.4-3.2-.7-4.4v-.5c0,0-.3-.5-.3-.5-7.9-18-13.8-22-21.8-26.1-1.8-.9-3.5-1.8-5.3-3-3.7-2.8-7.2-6.2-11.3-10.9,2.8-4.3,5.7-9,8.1-13.2,5.9-10.6,5.9-13.5,5.9-14.8,0-4.1-2.1-7.6-6.4-10.4h0c0,0,0-.2,0-.2-11.6-6.6-20.5-11.5-30.3-11.5h0ZM2066.8,158c-5.1,0-7.7,1.1-9.6,1.9-1.2.5-1.8.8-3.5.8h-.2c-19.2.9-47.6,2.2-71.8,2.2s-28.9-.6-36.8-1.9c-1.9-.3-3.3-.3-4.4-.3-8.9,0-9.2,6.5-9.2,7.2,0,3.5,2.3,7,13.4,12.4,3.4,1.7,12.1,5.6,17.7,5.6s6.2-1.2,8.2-2.1c2.1-1,4.1-1.9,8.1-2.1,27.9-.9,61.5-2.1,79.2-2.9v63.1c0,13.8,7.6,14.9,9.9,14.9,5.9,0,11.2-5.9,13.9-15.5h0v-.2c3.9-16,3.9-30.5,3.9-65.4s.5-1.6.9-2.3c.7-1.5,1.6-3.4,1.6-5.6,0-8.6-11.3-9.4-17-9.7-1.8,0-3.3,0-4.3,0h0Z"/>
          </g>
          <g>
            <path d="M2221,236.9c-3.3,0-7.5-2.8-8.9-16.3l-3.5-52.9c-.3-2.9-3.1-4.6-12.7-8-2-.5-7.8-2.4-7.8-6.3s1.7-5.7,13.4-5.7,23.4,1.8,28.3,3.2l67.6-1.2c2.4-.2,3.4-.6,4.6-1.1,1.6-.6,3.4-1.4,7.4-1.4,11,0,16.6,2.3,16.6,6.9s-1,3.4-2.1,5.1c-.6.9-1.2,1.9-1.5,2.8-2.1,8.4-4.1,16.6-5.8,23.8-2,8.2-3.8,15.5-5,20.5,6.1,1.7,12.2,4.4,12.2,8.9s-1,5.7-10.7,5.7l-82.4,1.2c-1.6,9.2-5.3,14.8-9.7,14.8ZM2231.1,210.1l52.7-1.2c6.9-.6,7.8-.8,11.6-1.9.5-.1,1-.3,1.6-.4l3.1-45-68.3,1.4c-.2.2-.5.3-.7.5-.3.2-.7.4-.9.6l.9,46ZM2159.8,128.5c-4.4,0-13.2-3-20-6-15.1-6.8-15.1-10.6-15.1-12s.4-4.5,6-4.5,2.8,0,4.8.6c14.1,2,28.7,2.9,47.3,2.9s22.6-.3,39-1.1l.2-31.4c-.3-2.8-9.9-5.1-13-5.8h-.2c-4.9-1.5-7.3-3.5-7.3-6.1,0-5,8-5.7,10.6-5.9h.6c24.1,1.9,31.2,3.6,31.2,10.6s-.2,2-.4,3.1-.4,2.3-.4,3.6l-1.4,31.3c15.3,0,26.8-.8,52.4-2.4h.1c8.2-1,11.6-2.3,14.7-3.4,3.1-1.2,5.8-2.2,11.8-2.2,8.6,0,28.7,1.2,28.7,12.1s-3.5,8.2-13.4,8.2h-2.7c-13.3-1-29.5-1.5-47-1.5-36.5,0-79.2,2.2-111.6,5.6-3,.7-5.1,1.6-6.9,2.4-2.4.9-4.7,1.9-8,1.9ZM2284.5,97.9c-2.1,0-4.5-1.5-4.5-5.7s.3-3.4.8-5.8h0c3.7-14.3,7.2-30.7,8.6-53.8-21.4.4-65.6,2.5-90.8,5.1-2.9.4-5,1.1-6.8,1.8-2.2.8-4.2,1.5-6.9,1.5-5.2,0-13.6-4.1-17.1-5.9-11.9-6.2-11.9-8.7-11.9-9.9,0-1.8,1-4,5.7-4s4.2.2,7.4.8c8.3,1.1,19.4,1.7,32.9,1.7,26.2,0,72.4-2.8,83.9-3.9,2.6-.2,3.6-.6,4.8-1,1.8-.6,3.6-1.2,8.3-1.2,12.7,0,18.8,2.3,18.8,7s-1.2,3.8-2.5,5.6c-.9,1.2-1.8,2.6-2.3,3.9-1,3.7-2,7.4-3,11.1-4.7,17.8-9.2,34.6-17.6,47h-.1c0,0-.1.2-.1.2-4.1,4.8-6.1,5.5-7.6,5.5Z"/>
            <path d="M2299.1,20.3c5.9,0,15.8.7,15.8,3.9s-3.5,4.9-4.7,8.6c-5.9,21.2-10.4,42.7-20.2,57.3-2.5,3-4.4,4.7-5.4,4.7s-1.5-1-1.5-2.7.2-3,.7-5.2c3.9-15.3,7.7-32.6,8.9-57.5-19.8.2-67.9,2.5-94.4,5.2-6.7,1-9.1,3.2-13.3,3.2-7.2,0-25.9-10.6-25.9-12.8s.7-1,2.7-1,3.9.2,6.9.7c9.1,1.2,20.7,1.7,33.3,1.7,25.9,0,72.1-2.7,84.2-4,6.4-.4,5.2-2.1,12.9-2.1M2212.4,62c24.7,2,28.4,3.7,28.4,7.7s-.7,4-.7,6.7l-1.5,34.3c17,0,28.6-.7,55.8-2.5,17-2,15.1-5.7,26.2-5.7s25.7,0,25.7,9.1-3.7,5.2-10.4,5.2h-2.5c-13.6-1-29.9-1.5-47.2-1.5-37.3,0-80,2.2-112.1,5.7-7.4,1.7-9.4,4.4-14.3,4.4-7.2,0-32.1-10.4-32.1-15.1s1-1.5,3-1.5,2.5,0,4.2.5c15.6,2.2,30.9,3,47.9,3s26.4-.5,42-1.2l.2-34.3c-.2-4.4-6.9-6.7-15.3-8.6-3.2-1-5.2-2.2-5.2-3.2,0-1.3,2.4-2.5,7.9-3M2309.4,150.2c2.5,0,13.6.2,13.6,3.9s-2.5,4.2-3.5,6.9c-4.9,20.2-9.6,39-11.6,47.4,8.9,2,12.8,4.7,12.8,6.7s-2.7,2.7-7.7,2.7l-85,1.2c-1.2,9.6-4.4,14.8-7.2,14.8s-4.9-4.2-5.9-13.6l-3.5-52.8c-.5-4.9-4.9-7.2-14.8-10.6-3-.7-5.7-2.2-5.7-3.5s2.5-2.7,10.4-2.7c11.4,0,24,2,27.9,3.2l68.2-1.2c6.3-.4,5.6-2.4,12-2.4M2303.2,158.6l-72.6,1.5c-.7,1-3.5,1.5-3.5,3.9l1,49.1,55.8-1.2c9.1-.7,8.4-1,15.8-3l3.5-50.3M2299.1,14.3c-4.9,0-7,.6-9.3,1.4-1.1.4-1.9.7-4,.8h-.2c-11.5,1.2-57.5,3.9-83.6,3.9s-24.2-.6-32.4-1.7c-3.4-.6-5.8-.8-7.8-.8s-2.7.1-4.1.6c-2.8,1-4.6,3.5-4.6,6.4s1,6,13.5,12.6c4.5,2.3,12.8,6.3,18.4,6.3s5.5-.8,7.9-1.6c1.8-.6,3.6-1.2,6.2-1.6,23.2-2.4,64.7-4.4,87.2-5-1.5,21.2-4.9,36.5-8.3,49.9h0v.2c-.6,2.7-.9,4.8-.9,6.5,0,4.2,2.3,8.7,7.5,8.7s5.9-1.9,10-6.8l.2-.2.2-.2c8.7-12.9,13.3-29.9,18.1-47.9.9-3.6,1.9-7.3,3-10.9.3-.9,1.1-2,1.9-3.1,1.4-2,3.1-4.3,3.1-7.4s-1.8-7.5-10.6-9.1c-4.4-.9-9-1-11.4-1h0ZM2212.3,56h-.5c-3.2.3-5.7.8-7.7,1.6-5.1,2.1-5.7,5.8-5.7,7.3,0,6.1,7.1,8.2,9.4,9h.2c0,0,.2.2.2.2,7.3,1.7,9.8,3,10.7,3.7l-.2,27.7c-14.9.7-26.2,1-36,1-18.3,0-32.8-.9-46.7-2.8-2.4-.6-4.3-.6-5.4-.6-7.1,0-9,4.7-9,7.5,0,4.3,3.6,7.2,6.7,9.3,3.3,2.2,7.4,4.2,10.2,5.4,6.5,2.9,16,6.3,21.2,6.3s6.6-1.2,9.2-2.3c1.7-.8,3.5-1.6,6.1-2.2,32.3-3.5,74.8-5.6,111.1-5.6s33.5.5,46.7,1.5h2.9c12.1,0,16.4-6,16.4-11.2,0-13.7-22.2-15.1-31.7-15.1s-9.6,1.2-12.9,2.4c-2.8,1.1-6,2.3-13.8,3.3-23.7,1.5-35.3,2.2-49,2.4l1.2-28h0v-.2c0-1,.2-2,.4-3.1s.4-2.3.4-3.6c0-5.1-3.1-8.5-9.3-10.3-4.5-1.3-11.6-2.3-24.7-3.3l-.4-.3h0ZM2309.4,144.2c-4.2,0-6.4.7-8.5,1.6-1.1.4-1.8.7-3.6.9l-67.1,1.2c-5.3-1.4-17.5-3.2-28.7-3.2s-7.6.4-10.1,1.3c-5.6,2-6.3,5.8-6.3,7.4,0,4.2,3.6,7.6,9.9,9.2,5.4,1.9,10.3,3.8,10.6,5.4l3.4,52.7h0v.2c.9,8.6,3.7,19,11.9,19s9.2-1.6,12.2-14.9l79.9-1.2c12.6,0,13.6-6.7,13.6-8.7,0-4.7-3.9-8.3-11.7-10.9,1.2-4.8,2.7-10.9,4.4-17.7,1.8-7.2,3.8-15.3,5.8-23.6.3-.6.8-1.4,1.2-2.1,1.2-1.9,2.5-4,2.5-6.7s-1.9-7.8-10.9-9.3c-3.3-.6-7.1-.6-8.5-.6h0ZM2233.2,166l63.6-1.3-2.7,39.6c-3.2.9-4.1,1.1-10.4,1.6l-49.7,1.1-.8-41h0Z"/>
          </g>
        </g>
        <g>
          <g>
            <path d="M467.4,139.9h66.4v119.7h-19.6l-7.5-17.7c-12.1,14.4-21.9,20.9-40.9,20.9-32,0-54.3-22.9-54.3-60.5v-121.5c0-33.3,19.6-60.5,59.5-60.5s60.8,29.4,60.8,64.7v15h-38.6c0-35.3-7.2-44.5-23.2-44.5s-18,5.9-18,25.8v121.3c0,15,4.9,24.9,19,24.9s22.2-9.2,22.2-32.7v-22.8h-25.8v-32.1h0Z"/>
            <path d="M599.1,259.6h-40.5V23.5h56.9c45.5,0,68.7,19.3,68.7,69.6s-14.7,53.3-28.5,59.5l34.3,107h-41.2l-28.8-97.8c-5.2.6-13.7,1-20.9,1v96.8h0ZM599.1,129.5h14.4c21.9,0,30.1-8.2,30.1-36.3s-8.2-36.3-30.1-36.3h-14.4v72.6Z"/>
            <path d="M938.4,259.6h-40.5v-98.1l-49-138h41.1l28.5,89.9h.7l27.1-89.9h41.2l-49.1,138v98.1Z"/>
          </g>
          <path d="M882.9,172h-47.1l-27.4-148.5h-50.4l-27.3,148.5h-47.4v35.1h40.9l-9.7,52.5h39.2l7.2-52.3h44.5l7.2,52.3h39.2l-9.7-52.5h40.7v-35.1h0ZM766.9,172l16-101.4h.7l16,101.4h-32.7Z"/>
        </g>
        <g>
          <g>
            <path class="cls-6" d="M1013.3,23.5h60.2c43.5,0,62.8,22.2,62.8,62.4s-8.5,41.5-28.1,49.4c20.6,9.2,32.7,25.5,32.7,55.9s-17.3,68.3-63.4,68.3h-64.1V23.5h-.1ZM1053.9,120.3h14.7c15.4,0,27.1-10.5,27.1-30.1s-8.5-33.3-26.5-33.3h-15.4v63.4h.1ZM1053.9,226.3h17c21.6,0,29.4-12.4,29.4-36.3s-9.2-36.3-33.3-36.3h-13.1v72.6h0Z"/>
            <path class="cls-6" d="M1160.5,259.6V23.5h108.6v35.3h-68v60.8h52.3v35.4h-52.4v69.3h72.6v35.3h-113.1Z"/>
            <path class="cls-6" d="M1535.2,259.6h-40.5V23.5h56.9c45.4,0,68.7,19.3,68.7,69.6s-14.7,53.3-28.4,59.5l34.3,106.9h-41.2l-28.8-97.8c-5.2.6-13.7,1-20.9,1v96.9h0ZM1535.2,129.5h14.4c21.9,0,30.1-8.2,30.1-36.3s-8.2-36.3-30.1-36.3h-14.4v72.6Z"/>
          </g>
          <g>
            <path class="cls-6" d="M1349.1,24.7l-27.3,148.5h-47.4v35.1h40.9l-9.7,52.5h39.2l7.2-52.3h44.5l7.2,52.3h39.2l-43.5-236.1h-50.3ZM1357.9,173.1l16-101.4h.7l16,101.4h-32.7Z"/>
            <polygon class="cls-6" points="1426.7 172.4 1433.2 207.5 1474.1 207.5 1474.1 172.4 1426.7 172.4"/>
          </g>
        </g>
      </g>
    </g>
  </g>
</svg>